<?xml version="1.0" encoding="UTF-8"?>
<svg width="499" height="285" viewBox="0 0 499 285" xmlns="http://www.w3.org/2000/svg">
  <path d="M0 35C-.005 20.841 8.521 8.074 21.601 2.654 34.681-2.767 49.739.228 59.75 10.24L249.49 199.99 439.23 10.24c8.842-8.842 21.73-12.296 33.809-9.059 12.079 3.236 21.514 12.671 24.75 24.75 3.237 12.078-.216 24.967-9.059 33.809L274.24 274.24c-6.564 6.565-15.467 10.253-24.75 10.253-9.283 0-18.186-3.688-24.75-10.253L10.25 59.74C3.679 53.185-.01 44.282 0 35Z" fill="#1c1d1d" fill-rule="nonzero"/>
</svg>
