<svg xmlns="http://www.w3.org/2000/svg" viewBox="11.53125 12.9375 156.90625 310.4375" fill="none">
  <path d="M 141.62,12.94 L 141.22,14.75 L 140.25,14.28 L 141.22,16.69 L 139.78,15.47 L 138.34,16.44 L 140.72,17.16 L 139.78,19.78 L 135.72,21.69 L 135.25,24.78 L 134.06,25.25 L 133.34,23.12 L 131.44,22.62 L 130.47,23.84 L 132.62,26.47 L 134.06,26.22 L 133.34,28.59 L 135.72,33.38 L 132.16,38.88 L 132.38,44.09 L 127.59,46.25 L 124.97,44.12 L 126.16,47.69 L 124.25,47.22 L 123.06,48.88 L 122.12,47.94 L 122.34,52.69 L 120.69,53.88 L 118.53,52.69 L 118.06,49.09 L 116.38,49.59 L 116.38,47.44 L 114.72,49.19 L 114,47 L 114,49.41 L 112.34,48.94 L 112.34,55.84 L 115.44,56.78 L 114.69,59.5 L 115.91,62.12 L 114.69,62.38 L 114.25,66.19 L 114.72,60.94 L 112.81,59.97 L 112.81,63.81 L 109.94,63.09 L 108.06,68.09 L 109,71.69 L 110.19,70.97 L 103.75,81.94 L 101.84,82.41 L 101.84,79.53 L 104.25,75.97 L 103.03,72.84 L 99.22,76.94 L 101.59,77.16 L 101.12,78.12 L 94.19,84.09 L 97.06,89.34 L 98.97,89.34 L 97.31,90.78 L 95.62,90.06 L 94.69,92.22 L 94.44,90.78 L 93.97,92.69 L 93.03,91.03 L 91.12,93.41 L 94.69,87.94 L 92.31,84.59 L 82.5,92.22 L 81.78,91.5 L 78.19,96.06 L 80.09,96.06 L 78.44,98.44 L 81.31,99.41 L 82.5,102.25 L 78.44,101.78 L 76.5,98.69 L 77,96.06 L 74.34,95.81 L 71.97,97.97 L 74.09,97.5 L 72.66,98.69 L 73.38,99.88 L 70.81,99.31 L 69.62,97.19 L 68.19,98.38 L 64.38,97.41 L 62.94,99.09 L 62.66,103.88 L 62.66,102.91 L 61.47,103.88 L 62.41,102.19 L 61.44,101.25 L 57.62,101.97 L 58.81,103.16 L 57.12,104.09 L 57.84,105.06 L 55.94,105.06 L 55.22,101 L 48.75,106.03 L 49.69,106.75 L 46.12,107.69 L 38,106.5 L 37.75,118.22 L 26.91,135.78 L 26.66,138.19 L 29.16,141.66 L 29.28,156.62 L 33.59,163.56 L 33.56,172.22 L 38.34,179.84 L 36.44,187.5 L 36.94,188.94 L 38.59,188.22 L 38.84,191.56 L 33.88,201.5 L 30.53,204.38 L 29.12,210.09 L 27.62,209.72 L 26.19,212.12 L 23.81,221.44 L 22.59,223.09 L 22.12,221.91 L 19.75,222.16 L 19.75,224.28 L 18.06,223.09 L 17.81,224.53 L 17.59,222.84 L 16.62,226.69 L 17.59,231.47 L 16.16,230.5 L 14.25,232.88 L 14.25,236.47 L 13.53,237.44 L 13.06,236 L 11.78,240.44 L 11.78,242.59 L 13.44,243.78 L 11.53,244.97 L 14.62,258.34 L 19.66,263.59 L 19.91,269.34 L 22.03,270.78 L 23.94,275.31 L 20.84,276.03 L 20.38,277.47 L 21.12,287.22 L 24.47,299.19 L 29.03,304.5 L 28.81,309.06 L 37.16,313.84 L 35.97,315.25 L 45.31,316.94 L 53.44,323.38 L 63.03,321.94 L 70.69,316.44 L 77.75,313.88 L 87.09,313.41 L 86.62,311.75 L 88.06,312.94 L 91.62,310.78 L 90.91,309.84 L 92.34,310.78 L 93.78,308.16 L 95.44,308.41 L 99.25,298.12 L 99.97,291.91 L 105.59,280.75 L 106.78,276.22 L 105.84,275.03 L 106.78,275.5 L 108.44,270.25 L 114.75,240.34 L 118.56,234.47 L 116.88,233.25 L 118.56,234.22 L 119.28,233.25 L 121.91,225.38 L 121.41,221.78 L 124.53,216.5 L 126.19,205.72 L 131.69,193.28 L 130.56,191.97 L 132,192.69 L 132.72,191.25 L 132.97,185 L 138.44,169.69 L 137.25,168.25 L 138.44,169.47 L 139.41,167.53 L 145.62,151.25 L 144.91,149.34 L 147.59,140.59 L 145.22,133.44 L 145.94,129.59 L 149.25,122.69 L 154.28,121.25 L 151.91,118.41 L 154.53,115.06 L 154.78,107.41 L 151.44,105.5 L 152.16,100.28 L 149.53,92.66 L 151.69,90.03 L 156,90.03 L 158.41,99.56 L 161.5,102.41 L 165.31,98.34 L 167.94,90.22 L 167.94,85.44 L 162.69,74.94 L 161.03,53.5 L 158.44,47.5 L 158.44,43.69 L 155.78,41.03 L 156.5,36.97 L 153.41,31.72 L 151.47,30.28 L 150.28,31.94 L 150.28,29.56 L 148.16,28.59 L 148.16,24.78 L 149.09,25.5 L 148.38,23.34 L 148.38,24.31 L 146.72,23.59 L 147.91,23.34 L 147.44,21.91 L 146,22.38 L 144.09,19.06 L 143.84,20.97 L 140.5,20.72 L 142.41,19.78 L 140.97,19.28 L 141.69,17.38 L 144.31,18.81 L 143.84,15.47 Z" fill="rgba(255,255,255,0.03)"/>
  <path d="M 141.62,12.94 L 141.22,14.75 L 140.25,14.28 L 141.22,16.69 L 139.78,15.47 L 138.34,16.44 L 140.72,17.16 L 139.78,19.78 L 135.72,21.69 L 135.25,24.78 L 134.06,25.25 L 133.34,23.12 L 131.44,22.62 L 130.47,23.84 L 132.62,26.47 L 134.06,26.22 L 133.34,28.59 L 135.72,33.38 L 132.16,38.88 L 132.38,44.09 L 127.59,46.25 L 124.97,44.12 L 126.16,47.69 L 124.25,47.22 L 123.06,48.88 L 122.12,47.94 L 122.34,52.69 L 120.69,53.88 L 118.53,52.69 L 118.06,49.09 L 116.38,49.59 L 116.38,47.44 L 114.72,49.19 L 114,47 L 114,49.41 L 112.34,48.94 L 112.34,55.84 L 115.44,56.78 L 114.69,59.5 L 115.91,62.12 L 114.69,62.38 L 114.25,66.19 L 114.72,60.94 L 112.81,59.97 L 112.81,63.81 L 109.94,63.09 L 108.06,68.09 L 109,71.69 L 110.19,70.97 L 103.75,81.94 L 101.84,82.41 L 101.84,79.53 L 104.25,75.97 L 103.03,72.84 L 99.22,76.94 L 101.59,77.16 L 101.12,78.12 L 94.19,84.09 L 97.06,89.34 L 98.97,89.34 L 97.31,90.78 L 95.62,90.06 L 94.69,92.22 L 94.44,90.78 L 93.97,92.69 L 93.03,91.03 L 91.12,93.41 L 94.69,87.94 L 92.31,84.59 L 82.5,92.22 L 81.78,91.5 L 78.19,96.06 L 80.09,96.06 L 78.44,98.44 L 81.31,99.41 L 82.5,102.25 L 78.44,101.78 L 76.5,98.69 L 77,96.06 L 74.34,95.81 L 71.97,97.97 L 74.09,97.5 L 72.66,98.69 L 73.38,99.88 L 70.81,99.31 L 69.62,97.19 L 68.19,98.38 L 64.38,97.41 L 62.94,99.09 L 62.66,103.88 L 62.66,102.91 L 61.47,103.88 L 62.41,102.19 L 61.44,101.25 L 57.62,101.97 L 58.81,103.16 L 57.12,104.09 L 57.84,105.06 L 55.94,105.06 L 55.22,101 L 48.75,106.03 L 49.69,106.75 L 46.12,107.69 L 38,106.5 L 37.75,118.22 L 26.91,135.78 L 26.66,138.19 L 29.16,141.66 L 29.28,156.62 L 33.59,163.56 L 33.56,172.22 L 38.34,179.84 L 36.44,187.5 L 36.94,188.94 L 38.59,188.22 L 38.84,191.56 L 33.88,201.5 L 30.53,204.38 L 29.12,210.09 L 27.62,209.72 L 26.19,212.12 L 23.81,221.44 L 22.59,223.09 L 22.12,221.91 L 19.75,222.16 L 19.75,224.28 L 18.06,223.09 L 17.81,224.53 L 17.59,222.84 L 16.62,226.69 L 17.59,231.47 L 16.16,230.5 L 14.25,232.88 L 14.25,236.47 L 13.53,237.44 L 13.06,236 L 11.78,240.44 L 11.78,242.59 L 13.44,243.78 L 11.53,244.97 L 14.62,258.34 L 19.66,263.59 L 19.91,269.34 L 22.03,270.78 L 23.94,275.31 L 20.84,276.03 L 20.38,277.47 L 21.12,287.22 L 24.47,299.19 L 29.03,304.5 L 28.81,309.06 L 37.16,313.84 L 35.97,315.25 L 45.31,316.94 L 53.44,323.38 L 63.03,321.94 L 70.69,316.44 L 77.75,313.88 L 87.09,313.41 L 86.62,311.75 L 88.06,312.94 L 91.62,310.78 L 90.91,309.84 L 92.34,310.78 L 93.78,308.16 L 95.44,308.41 L 99.25,298.12 L 99.97,291.91 L 105.59,280.75 L 106.78,276.22 L 105.84,275.03 L 106.78,275.5 L 108.44,270.25 L 114.75,240.34 L 118.56,234.47 L 116.88,233.25 L 118.56,234.22 L 119.28,233.25 L 121.91,225.38 L 121.41,221.78 L 124.53,216.5 L 126.19,205.72 L 131.69,193.28 L 130.56,191.97 L 132,192.69 L 132.72,191.25 L 132.97,185 L 138.44,169.69 L 137.25,168.25 L 138.44,169.47 L 139.41,167.53 L 145.62,151.25 L 144.91,149.34 L 147.59,140.59 L 145.22,133.44 L 145.94,129.59 L 149.25,122.69 L 154.28,121.25 L 151.91,118.41 L 154.53,115.06 L 154.78,107.41 L 151.44,105.5 L 152.16,100.28 L 149.53,92.66 L 151.69,90.03 L 156,90.03 L 158.41,99.56 L 161.5,102.41 L 165.31,98.34 L 167.94,90.22 L 167.94,85.44 L 162.69,74.94 L 161.03,53.5 L 158.44,47.5 L 158.44,43.69 L 155.78,41.03 L 156.5,36.97 L 153.41,31.72 L 151.47,30.28 L 150.28,31.94 L 150.28,29.56 L 148.16,28.59 L 148.16,24.78 L 149.09,25.5 L 148.38,23.34 L 148.38,24.31 L 146.72,23.59 L 147.91,23.34 L 147.44,21.91 L 146,22.38 L 144.09,19.06 L 143.84,20.97 L 140.5,20.72 L 142.41,19.78 L 140.97,19.28 L 141.69,17.38 L 144.31,18.81 L 143.84,15.47 Z" stroke="currentColor" stroke-width="3.1" stroke-linecap="round" stroke-linejoin="round"/>
</svg>
