<svg xmlns="http://www.w3.org/2000/svg" viewBox="11.53125 12.9375 156.90625 310.4375" fill="none">
  <path d="M 141.625,12.9375 L 141.375,13.15625 L 141.375,13.40625 L 141.125,13.40625 L 140.90625,13.625 L 140.65625,13.625 L 140.90625,13.875 L 141.125,13.875 L 141.4375,13.875 L 141.4375,14.03125 L 141.4375,14.28125 L 141.21875,14.28125 L 141.21875,14.75 L 140.96875,14.53125 L 140.96875,14.75 L 140.5,14.75 L 140.5,14.53125 L 140.25,14.28125 L 140.25,15 L 140.5,15.25 L 140.5,15 L 140.75,15 L 140.75,15.96875 L 140.96875,15.96875 L 140.96875,16.1875 L 140.96875,16.4375 L 141.21875,16.4375 L 141.21875,16.6875 L 140.96875,16.6875 L 140.75,16.4375 L 140.96875,16.1875 L 140.75,16.1875 L 140.5,16.4375 L 140.75,16.6875 L 140.5,16.6875 L 140.5,16.4375 L 140.5,16.1875 L 140.25,16.1875 L 140.25,15.96875 L 140.03125,15.96875 L 140.03125,15.71875 L 139.78125,15.46875 L 139.53125,15.46875 L 139.53125,15.71875 L 139.3125,15.71875 L 139.53125,15.96875 L 138.8125,15.96875 L 138.34375,16.4375 L 138.59375,16.4375 L 138.8125,16.6875 L 139.0625,16.4375 L 139.3125,16.4375 L 139.53125,16.1875 L 139.78125,16.6875 L 140.03125,16.6875 L 139.78125,16.90625 L 139.53125,16.90625 L 139.53125,17.15625 L 139.78125,17.15625 L 140.03125,16.90625 L 140.5,17.15625 L 140.71875,17.15625 L 140.5,17.625 L 140.71875,17.875 L 140.25,17.875 L 140.25,17.625 L 140.03125,17.625 L 140.03125,17.875 L 139.78125,18.09375 L 139.78125,18.34375 L 139.53125,18.34375 L 139.53125,18.8125 L 139.78125,19.0625 L 139.78125,19.78125 L 139.53125,20 L 139.3125,20 L 139.0625,20 L 138.8125,19.78125 L 138.34375,19.78125 L 138.34375,20.5 L 138.125,20.5 L 138.34375,20.71875 L 138.125,20.96875 L 137.875,20.71875 L 137.625,20.96875 L 137.625,20.71875 L 137.875,20.5 L 137.625,20.5 L 137.15625,20.96875 L 136.90625,20.71875 L 136.6875,20.96875 L 136.6875,21.21875 L 136.90625,21.21875 L 136.6875,21.4375 L 136.4375,21.4375 L 136.4375,21.21875 L 136.1875,21.4375 L 135.71875,21.6875 L 135.71875,21.9375 L 135.96875,21.9375 L 136.1875,22.15625 L 135.96875,22.15625 L 135.71875,21.9375 L 135.5,22.15625 L 135.71875,22.40625 L 135.71875,22.625 L 135.71875,22.875 L 135.5,22.875 L 135.5,23.34375 L 135.25,23.34375 L 135.5,24.0625 L 135.25,24.3125 L 135.25,24.78125 L 135,24.78125 L 134.78125,25.03125 L 134.53125,25.03125 L 134.53125,25.25 L 134.0625,25.25 L 134.3125,25.03125 L 134.0625,24.78125 L 134.0625,24.5625 L 133.8125,24.3125 L 133.8125,24.0625 L 133.59375,24.0625 L 133.34375,23.84375 L 133.59375,23.84375 L 133.59375,23.59375 L 133.34375,23.34375 L 133.34375,23.125 L 133.09375,23.34375 L 132.875,23.125 L 131.65625,23.125 L 131.65625,22.875 L 131.4375,22.875 L 131.4375,22.625 L 130.9375,22.875 L 130.9375,23.59375 L 130.46875,23.84375 L 130.9375,23.84375 L 130.9375,24.0625 L 131.1875,24.0625 L 131.4375,24.0625 L 131.4375,23.84375 L 131.65625,23.84375 L 131.65625,24.5625 L 131.90625,24.78125 L 131.65625,25.03125 L 132.375,25.03125 L 132.375,25.28125 L 132.625,25.5 L 132.375,25.75 L 132.625,25.75 L 132.625,26.46875 L 132.875,26.46875 L 132.875,26.21875 L 133.09375,26.46875 L 133.34375,26.21875 L 133.34375,26 L 133.5625,26 L 133.5625,26.21875 L 133.8125,26 L 134.0625,26.21875 L 134.0625,26.46875 L 133.8125,26.6875 L 133.5625,26.6875 L 133.5625,27.1875 L 133.34375,27.40625 L 133.34375,27.65625 L 133.5625,27.40625 L 133.8125,27.40625 L 133.5625,27.65625 L 133.5625,27.90625 L 133.34375,28.125 L 133.34375,28.59375 L 134.0625,28.59375 L 134.0625,28.84375 L 134.3125,29.09375 L 134.3125,29.3125 L 134.0625,29.3125 L 134.3125,29.8125 L 134.3125,30.75 L 134.53125,31 L 134.78125,31 L 134.78125,31.21875 L 135,31.46875 L 135,31.71875 L 135.25,31.9375 L 135.25,32.1875 L 135.25,33.15625 L 135.5,33.625 L 135.71875,33.375 L 135.71875,33.625 L 135.5,33.625 L 135,33.625 L 134.78125,34.34375 L 135,34.34375 L 135.25,34.5625 L 134.78125,34.5625 L 134.78125,34.8125 L 134.53125,34.8125 L 134.53125,35.28125 L 134.78125,35.28125 L 134.78125,35.0625 L 135,35.0625 L 135,35.28125 L 135.25,35.28125 L 135.25,35.53125 L 135,35.53125 L 134.78125,35.28125 L 134.78125,35.53125 L 134.53125,35.28125 L 134.53125,35.78125 L 134.78125,36 L 134.53125,36 L 134.28125,35.78125 L 134.53125,35.28125 L 134.28125,35.28125 L 134.0625,35.78125 L 134.28125,36 L 134.0625,36.25 L 134.0625,36 L 133.8125,36.25 L 134.0625,36.46875 L 133.5625,36.46875 L 133.8125,36.71875 L 133.5625,36.71875 L 133.34375,36.71875 L 133.34375,36.96875 L 133.09375,36.96875 L 133.09375,37.4375 L 132.875,37.6875 L 132.875,37.90625 L 132.625,37.90625 L 132.625,38.375 L 132.875,38.375 L 132.875,38.625 L 132.625,38.625 L 132.625,38.375 L 132.375,38.625 L 132.15625,38.875 L 132.375,38.875 L 132.375,39.09375 L 132.15625,39.34375 L 132.375,39.34375 L 132.375,39.59375 L 132.15625,39.59375 L 132.15625,39.8125 L 132.375,39.8125 L 132.375,40.0625 L 132.15625,40.0625 L 132.15625,40.3125 L 132.15625,40.53125 L 132.375,40.53125 L 132.375,40.78125 L 132.15625,41 L 132.375,41.25 L 132.15625,41.25 L 132.375,41.5 L 132.625,41.5 L 132.625,41.71875 L 132.875,41.96875 L 132.375,41.96875 L 132.375,42.1875 L 132.15625,42.1875 L 132.375,42.4375 L 131.90625,42.4375 L 132.15625,42.6875 L 131.90625,42.90625 L 131.65625,42.90625 L 131.90625,43.15625 L 131.65625,43.15625 L 131.90625,43.40625 L 131.65625,43.40625 L 131.65625,43.625 L 131.90625,43.875 L 132.15625,43.875 L 132.375,44.09375 L 131.90625,44.09375 L 131.1875,44.8125 L 131.4375,45.0625 L 130.71875,45.0625 L 130.71875,45.3125 L 130.46875,45.3125 L 130,45.78125 L 130,45.53125 L 129.53125,45.78125 L 129.28125,45.53125 L 129.28125,46.03125 L 129.03125,45.78125 L 127.84375,45.78125 L 127.59375,46.03125 L 127.84375,46.03125 L 127.59375,46.25 L 127.59375,46.03125 L 127.59375,45.78125 L 126.875,45.53125 L 126.65625,45.53125 L 126.15625,45.0625 L 126.15625,44.8125 L 125.6875,44.8125 L 125.9375,44.59375 L 125.6875,44.34375 L 125.6875,44.125 L 124.96875,44.125 L 125.21875,44.34375 L 124.96875,44.59375 L 125.21875,45.0625 L 125.21875,45.53125 L 125.4375,45.53125 L 125.4375,46.03125 L 125.6875,46.03125 L 125.6875,46.25 L 125.9375,46.5 L 125.9375,46.71875 L 125.6875,46.71875 L 126.15625,46.96875 L 125.9375,46.96875 L 126.15625,47.4375 L 126.15625,47.6875 L 125.9375,47.6875 L 125.6875,47.6875 L 125.9375,47.4375 L 125.9375,47.21875 L 125.6875,47.4375 L 125.4375,47.21875 L 125.21875,47.21875 L 125.4375,47.4375 L 124.96875,47.4375 L 124.75,47.6875 L 124.96875,47.6875 L 124.96875,47.9375 L 124.75,47.6875 L 124.75,47.4375 L 124.5,47.21875 L 124.25,47.21875 L 124.25,47.4375 L 124.5,47.4375 L 124.5,47.9375 L 124.25,47.6875 L 124.03125,47.6875 L 123.78125,47.4375 L 123.78125,47.6875 L 123.53125,47.6875 L 123.3125,47.9375 L 123.3125,48.15625 L 123.3125,48.40625 L 123.3125,48.625 L 123.0625,48.875 L 123.0625,48.40625 L 122.8125,48.15625 L 122.59375,47.6875 L 122.34375,47.9375 L 122.125,47.9375 L 121.875,48.40625 L 122.125,48.625 L 122.125,48.875 L 122.34375,49.125 L 122.59375,49.34375 L 122.34375,49.59375 L 122.34375,49.84375 L 122.125,49.84375 L 122.125,50.0625 L 121.875,50.0625 L 121.875,50.5625 L 121.875,50.78125 L 121.625,51.03125 L 121.875,51.03125 L 121.875,51.25 L 122.125,51.25 L 122.125,51.5 L 121.875,51.5 L 121.625,51.75 L 121.875,51.96875 L 121.875,51.75 L 122.125,51.75 L 122.125,51.96875 L 122.125,52.21875 L 122.34375,52.21875 L 122.34375,52.6875 L 122.125,52.6875 L 122.125,52.9375 L 121.625,52.9375 L 121.875,53.15625 L 121.625,53.15625 L 121.625,53.40625 L 121.40625,53.40625 L 121.15625,53.65625 L 120.6875,53.65625 L 120.6875,53.875 L 120.4375,53.875 L 120.4375,53.65625 L 120.21875,53.875 L 119.96875,53.875 L 119.71875,53.40625 L 119.25,52.9375 L 118.53125,52.6875 L 118.53125,52.21875 L 118.78125,52.21875 L 119,52.21875 L 119,51.96875 L 118.53125,51.96875 L 118.78125,51.75 L 118.53125,51.75 L 118.53125,50.78125 L 118.3125,50.53125 L 118.0625,50.53125 L 118.3125,49.8125 L 118.0625,49.8125 L 118.0625,49.09375 L 117.34375,49.09375 L 117.34375,48.875 L 117.09375,48.875 L 117.09375,49.34375 L 116.875,49.34375 L 116.375,49.59375 L 116.625,49.34375 L 116.875,49.34375 L 116.875,48.875 L 117.09375,48.875 L 116.875,48.625 L 116.625,49.09375 L 116.625,48.625 L 116.875,48.625 L 116.625,48.375 L 116.625,48.15625 L 116.375,47.90625 L 116.375,47.4375 L 115.65625,47.4375 L 115.1875,47.6875 L 115.65625,47.6875 L 115.90625,47.90625 L 116.15625,48.375 L 115.65625,48.375 L 115.4375,48.375 L 115.4375,48.625 L 115.1875,48.625 L 115.1875,48.875 L 114.9375,48.625 L 114.9375,49.1875 L 114.71875,49.1875 L 114.71875,49.15625 L 114.5,48.9375 L 114.71875,48.6875 L 114.71875,48.4375 L 114.5,48.4375 L 114.25,48.4375 L 114.25,47.96875 L 114.5,47.96875 L 114.71875,47.71875 L 114.71875,47.5 L 114.25,47.25 L 114.25,47 L 114,47 L 114,47.5 L 113.53125,48.4375 L 113.28125,48.6875 L 113.78125,48.6875 L 113.78125,48.9375 L 114,48.9375 L 114,49.40625 L 113.78125,49.40625 L 113.78125,49.15625 L 113.53125,49.15625 L 113.78125,48.9375 L 113.53125,48.9375 L 113.28125,49.15625 L 113.0625,48.9375 L 112.34375,48.9375 L 112.5625,49.15625 L 112.34375,49.40625 L 112.34375,49.875 L 112.09375,50.34375 L 112.34375,50.59375 L 112.09375,51.5625 L 112.8125,51.5625 L 113.0625,51.3125 L 113.0625,51.78125 L 112.09375,51.78125 L 111.875,52.28125 L 112.09375,52.5 L 111.625,52.96875 L 111.875,53.46875 L 112.09375,53.6875 L 112.34375,53.9375 L 112.34375,53.6875 L 112.5625,53.6875 L 112.34375,53.9375 L 112.09375,53.9375 L 112.09375,54.65625 L 112.34375,55.125 L 112.34375,55.84375 L 113.0625,56.09375 L 113.28125,56.09375 L 113.78125,56.3125 L 113.78125,56.5625 L 114,56.3125 L 114,56.8125 L 114.25,56.5625 L 114.25,56.3125 L 114.5,56.3125 L 114.5,57.0625 L 114.71875,57.0625 L 114.71875,56.875 L 115.09375,56.875 L 115.09375,56.78125 L 115.4375,56.78125 L 115.1875,57.03125 L 115.1875,57.25 L 115.4375,57.25 L 115.1875,57.5 L 114.96875,57.75 L 114.96875,57.78125 L 114.59375,57.78125 L 114.59375,58.375 L 114.6875,58.375 L 114.6875,59.5 L 114.9375,59.5 L 115.40625,59.25 L 115.1875,59.5 L 115.40625,59.75 L 115.40625,59.96875 L 115.65625,60.4375 L 115.65625,60.6875 L 115.40625,60.6875 L 115.65625,60.9375 L 115.40625,61.15625 L 115.40625,61.875 L 115.90625,61.875 L 115.90625,62.125 L 115.40625,62.125 L 115.1875,62.125 L 114.9375,62.375 L 114.9375,62.59375 L 114.6875,62.375 L 114.6875,62.84375 L 114.6875,63.0625 L 114.6875,63.3125 L 114.9375,63.3125 L 114.6875,63.5625 L 115.1875,63.5625 L 115.1875,63.78125 L 115.1875,64.03125 L 114.9375,64.03125 L 114.9375,64.28125 L 114.71875,64.28125 L 114.5,64.28125 L 114.5,64.75 L 114.6875,65.1875 L 114.6875,65.46875 L 114.5,65.46875 L 114.5,65.9375 L 114.25,65.9375 L 114.25,66.1875 L 114,66.1875 L 114.25,65.9375 L 114.25,65.21875 L 114,65.21875 L 114,65 L 113.78125,65 L 113.78125,64.75 L 114,64.53125 L 114,64.28125 L 114,64.03125 L 113.78125,64.03125 L 114,63.8125 L 114.25,62.84375 L 114.25,62.59375 L 114.5,61.875 L 114.71875,61.65625 L 114.71875,61.1875 L 114.5,61.1875 L 114.71875,60.9375 L 114.5,60.9375 L 114,60.6875 L 113.78125,60.9375 L 113.78125,60.46875 L 113.28125,60.21875 L 113.0625,60.21875 L 112.8125,59.96875 L 112.8125,60.46875 L 112.5625,60.6875 L 113.0625,60.9375 L 113.28125,61.1875 L 113.28125,61.40625 L 113.53125,61.65625 L 113.53125,62.59375 L 113.28125,63.09375 L 113.28125,63.3125 L 112.8125,63.8125 L 112.5625,63.5625 L 112.5625,63.3125 L 112.34375,63.5625 L 112.09375,63.5625 L 112.09375,63.8125 L 111.375,63.8125 L 111.375,63.5625 L 111.15625,63.5625 L 110.90625,63.3125 L 110.90625,63.09375 L 110.4375,62.84375 L 110.1875,62.84375 L 110.4375,63.09375 L 110.1875,63.3125 L 109.9375,63.3125 L 109.9375,63.09375 L 109.71875,63.5625 L 109.71875,64.28125 L 109.9375,64.28125 L 109.71875,64.53125 L 109.9375,64.53125 L 109.71875,64.75 L 109.46875,64.75 L 109.25,65.21875 L 109,65.46875 L 108.53125,65.71875 L 108.53125,65.9375 L 108.28125,66.65625 L 108.28125,67.625 L 108.0625,67.875 L 108.0625,68.09375 L 108.28125,68.09375 L 108.53125,68.34375 L 108.53125,68.5625 L 108.28125,68.8125 L 108.53125,68.8125 L 108.53125,69.0625 L 109,69.53125 L 109,70 L 108.53125,70.25 L 108.53125,70.46875 L 109,70.71875 L 108.75,70.96875 L 109,71.1875 L 108.75,71.1875 L 109,71.6875 L 109.46875,71.4375 L 109.71875,71.4375 L 109.71875,71.1875 L 109.9375,71.1875 L 110.1875,70.96875 L 109.9375,71.4375 L 109.71875,71.4375 L 109.25,71.90625 L 109.25,72.15625 L 109,72.15625 L 109,72.875 L 108.53125,73.34375 L 108.0625,73.34375 L 108.0625,73.8125 L 107.8125,73.8125 L 108.0625,74.0625 L 107.8125,74.53125 L 107.34375,74.78125 L 107.09375,75.25 L 106.84375,75.5 L 106.84375,75.71875 L 107.09375,75.71875 L 106.84375,76.21875 L 106.375,76.6875 L 106.375,76.9375 L 106.15625,77.15625 L 106.15625,77.40625 L 105.65625,77.875 L 105.90625,77.875 L 105.90625,78.125 L 105.65625,78.59375 L 105.1875,78.8125 L 104.9375,79.0625 L 105.1875,79.0625 L 104.9375,79.3125 L 105.4375,79.53125 L 104.9375,80.03125 L 105.1875,80.25 L 104.9375,80.5 L 104.46875,80.71875 L 104.9375,80.25 L 104.9375,80.03125 L 104.9375,79.78125 L 104.71875,80.03125 L 104.46875,80.03125 L 104.25,80.5 L 104,80.71875 L 104,81.21875 L 103.53125,81.6875 L 103.75,81.9375 L 103.53125,81.9375 L 103.03125,82.40625 L 102.8125,82.40625 L 102.8125,82.625 L 102.5625,82.875 L 102.5625,82.625 L 102.09375,82.625 L 101.84375,82.40625 L 101.84375,81.4375 L 102.09375,80.96875 L 102.09375,80.5 L 101.84375,79.78125 L 101.84375,79.53125 L 102.3125,79.0625 L 102.5625,78.59375 L 103.03125,78.34375 L 103.03125,78.09375 L 103.53125,77.625 L 103.75,77.15625 L 104,76.90625 L 104,76.6875 L 104.25,75.96875 L 103.75,75.96875 L 104,75.46875 L 103.53125,75 L 103.53125,74.75 L 103.75,74.75 L 103.75,74.53125 L 103.53125,74.53125 L 104,73.8125 L 103.75,73.8125 L 103.28125,73.34375 L 103.28125,72.84375 L 103.03125,72.84375 L 102.8125,73.34375 L 102.09375,73.5625 L 101.125,74.78125 L 99.9375,75.96875 L 99.6875,76.6875 L 99.21875,76.9375 L 99.4375,77.15625 L 99.4375,77.625 L 99.6875,77.625 L 100.15625,77.40625 L 100.15625,77.625 L 100.65625,77.625 L 100.65625,77.15625 L 100.875,76.9375 L 101.125,76.9375 L 101.125,77.15625 L 101.59375,77.15625 L 101.59375,77.40625 L 101.375,77.40625 L 101.375,77.625 L 100.875,77.875 L 101.125,78.125 L 100.875,78.125 L 100.65625,78.34375 L 100.65625,77.875 L 100.40625,78.125 L 100.40625,78.34375 L 100.15625,78.34375 L 99.6875,78.59375 L 99.4375,78.59375 L 99.21875,78.84375 L 98.96875,78.84375 L 98.75,79.0625 L 98.96875,79.3125 L 98.75,79.5625 L 98.5,79.5625 L 98.25,79.78125 L 97.78125,80.03125 L 97.78125,80.25 L 98.03125,80.25 L 98.03125,80.5 L 97.78125,80.75 L 97.5625,81.21875 L 97.5625,81.4375 L 97.3125,81.4375 L 96.125,82.40625 L 95.625,82.40625 L 95.15625,82.65625 L 95.15625,83.125 L 94.90625,83.125 L 94.6875,83.375 L 94.1875,84.09375 L 94.1875,84.8125 L 93.96875,85.03125 L 94.1875,85.28125 L 94.4375,85.28125 L 94.6875,85.5 L 94.6875,86.21875 L 95.15625,86.21875 L 95.15625,86 L 95.40625,86 L 95.40625,86.46875 L 95.15625,86.21875 L 95.15625,86.71875 L 95.40625,86.71875 L 95.15625,86.9375 L 95.625,86.9375 L 96.125,86.71875 L 96.34375,86.71875 L 96.59375,86.9375 L 96.34375,88.15625 L 96.8125,88.625 L 97.0625,89.34375 L 98.25,89.34375 L 98.5,89.09375 L 98.75,89.09375 L 98.96875,89.34375 L 98.5,89.34375 L 98.25,89.59375 L 98.03125,89.59375 L 98.03125,89.8125 L 97.78125,89.8125 L 97.5625,90.3125 L 97.0625,90.3125 L 97.5625,90.53125 L 97.3125,90.78125 L 96.59375,90.53125 L 96.59375,90.78125 L 96.34375,90.53125 L 96.34375,90.3125 L 96.125,90.0625 L 95.875,90.0625 L 95.625,90.0625 L 95.40625,90.3125 L 95.625,90.53125 L 95.40625,90.53125 L 95.625,90.78125 L 95.875,91.25 L 95.625,91.25 L 95.40625,90.78125 L 95.40625,91 L 95.40625,91.25 L 95.15625,90.78125 L 95.15625,91.25 L 95.15625,91.71875 L 94.6875,92.21875 L 94.6875,91.96875 L 94.9375,91.71875 L 95.15625,91.25 L 94.9375,91.25 L 94.4375,90.78125 L 94.4375,91.96875 L 93.96875,92.6875 L 93.96875,92.21875 L 93.5,91.75 L 93.5,91.5 L 93.25,91.25 L 93.25,91.03125 L 93.03125,91.03125 L 92.78125,91.25 L 92.78125,91.5 L 92.53125,92.46875 L 92.3125,92.46875 L 92.53125,92.6875 L 92.3125,92.6875 L 92.3125,93.1875 L 92.0625,93.40625 L 91.59375,93.1875 L 91.34375,93.40625 L 91.125,93.40625 L 91.34375,93.1875 L 91.59375,92.6875 L 92.0625,92.6875 L 92.3125,92.46875 L 92.3125,91.25 L 92.78125,90.78125 L 92.78125,90.0625 L 93.03125,89.8125 L 93.25,89.34375 L 93.25,89.125 L 93.03125,89.34375 L 93.03125,89.125 L 93.25,89.125 L 93.5,89.125 L 93.5,88.875 L 93.96875,88.625 L 93.96875,88.40625 L 94.6875,87.9375 L 94.6875,87.6875 L 94.4375,87.4375 L 94.21875,87.21875 L 93.75,86.96875 L 93.25,86.96875 L 93.25,86.71875 L 92.78125,86.5 L 92.53125,86.25 L 92.78125,86.25 L 92.53125,85.78125 L 92.53125,85.3125 L 92.78125,85.3125 L 92.78125,85.0625 L 92.53125,85.0625 L 92.53125,84.59375 L 92.3125,84.59375 L 91.59375,84.8125 L 90.625,85.3125 L 89.90625,85.78125 L 89.4375,86 L 89.1875,86.5 L 88.25,86.96875 L 86.5625,88.65625 L 85.59375,89.125 L 85.59375,89.375 L 85.125,89.59375 L 84.40625,90.3125 L 84.15625,90.09375 L 84.15625,90.3125 L 83.6875,90.5625 L 83.21875,91.03125 L 82.96875,91.03125 L 82.25,91.75 L 82.25,92 L 82.5,92.21875 L 82.25,92.21875 L 82.03125,92 L 82.03125,91.5 L 81.78125,91.5 L 81.3125,92.21875 L 81.0625,92.46875 L 81.0625,92.71875 L 79.875,93.4375 L 79.375,94.15625 L 79.15625,94.375 L 78.90625,94.875 L 78.90625,95.09375 L 78.6875,95.5625 L 78.1875,96.0625 L 78.4375,96.0625 L 78.4375,96.28125 L 79.15625,96.28125 L 79.40625,96.28125 L 79.875,96.0625 L 80.09375,96.0625 L 79.875,96.28125 L 80.09375,96.53125 L 79.875,96.53125 L 79.625,96.53125 L 79.625,97.25 L 79.15625,97.5 L 79.15625,97.71875 L 78.90625,97.96875 L 78.4375,97.96875 L 78.4375,98.4375 L 78.6875,98.6875 L 78.90625,98.6875 L 79.15625,98.4375 L 79.875,98.6875 L 81.3125,99.40625 L 81.78125,99.875 L 82.03125,100.34375 L 82.5,101.0625 L 82.5,101.3125 L 81.78125,100.84375 L 81.53125,100.84375 L 81.3125,100.59375 L 81.78125,101.5625 L 82.25,101.78125 L 82.5,102.25 L 82.25,102.03125 L 81.53125,101.5625 L 80.5625,101.5625 L 81.0625,102.03125 L 81.53125,102.03125 L 81.78125,102.25 L 81.28125,102.25 L 80.34375,101.78125 L 79.625,101.3125 L 80.09375,102.25 L 79.625,101.78125 L 78.90625,101.5625 L 79.125,102.03125 L 79.375,102.25 L 79.125,102.25 L 78.90625,102.03125 L 78.65625,101.5625 L 78.4375,101.3125 L 78.28125,101.46875 L 78.4375,101.78125 L 78.1875,101.5625 L 78.28125,101.46875 L 77.6875,100.34375 L 77.6875,100.125 L 77.46875,99.40625 L 77.46875,98.90625 L 76.75,98.6875 L 76.5,98.6875 L 76.5,98.4375 L 76.75,98.1875 L 76.75,98.4375 L 77,98.1875 L 77,97.25 L 77.21875,97 L 77.21875,96.78125 L 77,96.53125 L 77,96.0625 L 76.75,96.0625 L 76.5,95.8125 L 76.03125,95.8125 L 74.34375,95.8125 L 74.125,96.0625 L 73.875,96.0625 L 72.4375,97.5 L 72.4375,97.71875 L 72.1875,97.71875 L 71.96875,97.96875 L 71.96875,98.21875 L 72.1875,98.4375 L 72.6875,98.21875 L 72.90625,97.96875 L 72.90625,97.71875 L 73.15625,97.71875 L 73.625,97.25 L 73.625,97.5 L 73.875,97.25 L 74.09375,97.5 L 73.875,97.5 L 73.375,97.71875 L 73.625,97.96875 L 73.625,98.21875 L 73.375,98.21875 L 73.15625,98.4375 L 73.15625,98.21875 L 72.90625,98.21875 L 72.90625,98.4375 L 72.65625,98.6875 L 72.90625,98.9375 L 73.375,98.9375 L 73.375,99.15625 L 73.625,99.15625 L 73.875,99.40625 L 73.375,99.15625 L 73.625,99.40625 L 73.375,99.40625 L 73.21875,99.5625 L 73.375,99.875 L 73.15625,99.625 L 73.21875,99.5625 L 73.15625,99.40625 L 72.90625,99.40625 L 72.4375,98.9375 L 72.1875,98.9375 L 71.9375,99.15625 L 71.71875,99.15625 L 71.71875,99.34375 L 71.5625,99.34375 L 71.5625,99.3125 L 71.53125,99.3125 L 71.28125,99.09375 L 71.0625,99.09375 L 70.8125,99.3125 L 70.8125,99.09375 L 70.5625,98.59375 L 70.5625,98.125 L 70.8125,98.125 L 70.5625,97.875 L 70.8125,97.875 L 70.8125,97.65625 L 70.5625,97.65625 L 69.625,97.40625 L 69.625,97.1875 L 69.375,97.40625 L 69.125,97.1875 L 68.90625,97.1875 L 68.90625,97.40625 L 69.125,97.65625 L 68.90625,97.65625 L 68.90625,97.40625 L 68.65625,97.40625 L 68.1875,97.875 L 67.71875,98.125 L 68.1875,98.125 L 68.1875,98.375 L 67.71875,98.125 L 67.46875,97.875 L 67.46875,98.125 L 67.21875,98.375 L 67,98.125 L 66.53125,98.125 L 66.03125,98.125 L 66.28125,97.875 L 65.3125,97.875 L 64.375,97.40625 L 64.59375,97.65625 L 64.125,97.875 L 64.125,98.125 L 63.875,98.375 L 63.40625,98.59375 L 63.15625,98.84375 L 63.40625,98.84375 L 62.9375,99.09375 L 63.15625,99.3125 L 63.40625,99.09375 L 63.40625,99.5625 L 63.65625,99.5625 L 63.65625,99.8125 L 63.65625,100.53125 L 63.40625,100.75 L 63.40625,101.71875 L 63.65625,101.46875 L 63.65625,101.71875 L 63.40625,101.71875 L 62.9375,101.71875 L 62.9375,102.375 L 62.875,102.4375 L 62.65625,102.6875 L 63.125,103.15625 L 63.375,103.40625 L 63.375,103.625 L 63.125,103.15625 L 62.875,103.15625 L 63.125,103.40625 L 62.875,103.40625 L 62.875,103.625 L 62.65625,103.625 L 62.65625,103.875 L 62.40625,103.875 L 62.65625,103.625 L 62.65625,102.90625 L 62.40625,102.90625 L 62.1875,103.15625 L 62.40625,103.40625 L 62.1875,103.40625 L 61.9375,103.15625 L 61.6875,103.625 L 61.46875,103.875 L 61.46875,103.625 L 61.9375,103.15625 L 62.1875,103.15625 L 62.1875,102.6875 L 62.40625,102.6875 L 62.40625,102.4375 L 62.40625,102.1875 L 62.15625,101.96875 L 61.9375,101.5 L 62.15625,101.25 L 61.9375,101.25 L 61.6875,101.5 L 61.4375,101.25 L 60.96875,101.5 L 59.53125,101.71875 L 59.0625,101.96875 L 57.625,101.96875 L 57.375,102.1875 L 57.375,102.4375 L 57.625,102.4375 L 57.625,102.90625 L 57.84375,103.15625 L 58.09375,103.15625 L 58.3125,102.90625 L 58.3125,103.15625 L 58.8125,103.15625 L 58.5625,103.40625 L 58.3125,103.40625 L 58.3125,103.625 L 58.3125,103.875 L 58.09375,104.09375 L 57.84375,103.875 L 57.625,104.09375 L 57.125,104.09375 L 57.125,104.59375 L 57.625,104.59375 L 57.84375,105.0625 L 57.625,105.0625 L 57.625,104.8125 L 57.375,104.8125 L 57.375,105.0625 L 57.125,104.8125 L 56.90625,104.8125 L 56.90625,105.0625 L 56.65625,105.0625 L 56.65625,105.3125 L 56.40625,105.0625 L 56.1875,105.0625 L 55.9375,105.0625 L 55.6875,104.8125 L 55.9375,104.8125 L 55.9375,104.34375 L 56.1875,104.34375 L 55.9375,103.875 L 55.9375,103.625 L 56.1875,103.875 L 56.1875,103.625 L 56.40625,103.40625 L 56.1875,102.90625 L 55.9375,102.90625 L 55.6875,102.6875 L 55.6875,102.4375 L 55.6875,101 L 55.21875,101 L 54.96875,101.25 L 54.5,101.25 L 53.53125,102.1875 L 53.0625,102.1875 L 52.8125,102.4375 L 51.625,103.875 L 50.4375,105.0625 L 49.71875,105.5625 L 49,105.78125 L 48.75,106.03125 L 49,106.03125 L 48.75,106.28125 L 49,106.28125 L 49.21875,106.5 L 49.46875,106.5 L 49.6875,106.75 L 49.46875,106.75 L 49.21875,106.5 L 48.75,106.5 L 48.03125,106.5 L 47.78125,106.28125 L 47.3125,106.75 L 47.3125,106.96875 L 47.0625,106.75 L 47.0625,106.96875 L 46.84375,106.96875 L 46.59375,107.21875 L 46.84375,107.21875 L 46.59375,107.46875 L 46.375,107.46875 L 46.375,107.6875 L 46.125,107.6875 L 46.125,107.46875 L 45.40625,107.46875 L 45.15625,107.21875 L 44.6875,107.21875 L 44.9375,106.96875 L 45.40625,107.21875 L 45.65625,106.96875 L 45.40625,106.96875 L 45.15625,106.75 L 44.4375,106.96875 L 43.25,106.96875 L 42.78125,106.75 L 42.53125,106.96875 L 42.53125,106.75 L 42.28125,106.96875 L 41.8125,106.75 L 41.5625,106.75 L 41.5625,106.5 L 41.34375,106.75 L 40.625,106.75 L 39.4375,106.5 L 39.1875,106.5 L 39.4375,106.75 L 39.65625,106.75 L 39.65625,106.96875 L 39.4375,106.96875 L 39.1875,106.75 L 39.1875,106.96875 L 38.71875,106.25 L 38.46875,106.5 L 38.21875,106.5 L 38.21875,106.75 L 38,106.5 L 37.75,106.75 L 37.75,107.21875 L 38,107.21875 L 38,107.6875 L 37.75,107.6875 L 37.75,107.9375 L 37.53125,109.125 L 37.28125,109.125 L 37.03125,109.59375 L 37.28125,110.3125 L 37.03125,109.84375 L 37.03125,110.5625 L 37.53125,111.28125 L 37.53125,111.53125 L 37.75,112 L 38,112 L 38,112.25 L 38,112.46875 L 38.21875,112.71875 L 38.46875,113.4375 L 38.21875,114.625 L 37.75,114.875 L 37.53125,115.125 L 37.53125,114.40625 L 37.28125,114.625 L 37.28125,114.875 L 37.03125,115.09375 L 37.28125,115.59375 L 37.75,116.3125 L 37.75,117.25 L 37.75,118.21875 L 37.53125,118.46875 L 37.28125,118.46875 L 37.03125,118.6875 L 36.5625,119.65625 L 36.09375,119.875 L 35.84375,119.875 L 35.84375,120.125 L 36.09375,120.375 L 35.84375,120.375 L 35.625,120.84375 L 35.375,121.09375 L 35.375,121.3125 L 35.625,121.3125 L 35.625,121.5625 L 35.375,121.5625 L 35.375,121.3125 L 35.125,121.3125 L 35.125,121.5625 L 34.90625,122.03125 L 34.65625,122.03125 L 34.65625,122.28125 L 34.40625,122.75 L 34.1875,123.46875 L 34.1875,123.71875 L 33.9375,123.46875 L 33.9375,123.9375 L 33.6875,124.1875 L 33.6875,123.9375 L 33,125.375 L 33.21875,125.15625 L 33.46875,125.15625 L 33,125.375 L 33,125.625 L 33,125.84375 L 32.875,125.75 L 32.625,125.96875 L 32.5,126.34375 L 32.5,126.09375 L 31.78125,127.0625 L 32.03125,127.0625 L 31.78125,127.3125 L 31.5625,127.0625 L 31.3125,127.3125 L 31.0625,128 L 31.0625,128.96875 L 30.84375,129.4375 L 30.84375,128.71875 L 30.59375,128.96875 L 30.59375,129.4375 L 30.375,129.9375 L 30.59375,129.9375 L 30.375,130.15625 L 30.125,130.15625 L 30.125,130.625 L 29.875,130.875 L 29.875,130.65625 L 29.40625,131.125 L 28.9375,132.0625 L 28.9375,132.78125 L 28.6875,132.78125 L 28.6875,132.3125 L 28.4375,132.3125 L 28.4375,132.78125 L 28.3125,132.78125 L 28.3125,132.6875 L 28.28125,132.78125 L 28.28125,132.8125 L 28.09375,133.625 L 27.84375,133.875 L 27.375,135.0625 L 27.375,135.3125 L 27.125,135.0625 L 27.125,135.3125 L 26.90625,135.78125 L 26.90625,136.03125 L 27.375,136.5 L 27.375,136.75 L 27.375,136.96875 L 27.125,136.96875 L 27.375,136.75 L 26.90625,136.25 L 26.90625,137.21875 L 27.125,137.21875 L 26.90625,137.46875 L 26.90625,137.6875 L 26.90625,137.9375 L 26.65625,138.1875 L 27.125,138.65625 L 27.375,138.65625 L 27.375,138.90625 L 27.125,138.65625 L 26.90625,138.65625 L 27.375,139.375 L 27.625,139.125 L 27.84375,139.125 L 27.625,139.375 L 27.84375,139.84375 L 28.28125,140.28125 L 28.3125,140.28125 L 28.4375,140.28125 L 28.4375,140.59375 L 28.3125,140.59375 L 28.09375,140.59375 L 28.3125,140.84375 L 28.3125,140.9375 L 28.4375,140.9375 L 28.4375,141.1875 L 28.6875,141.4375 L 29.15625,141.65625 L 29.15625,141.90625 L 29.15625,144.0625 L 28.9375,144.3125 L 28.6875,144.78125 L 29.15625,145 L 28.6875,145 L 28.6875,146.4375 L 28.6875,147.15625 L 28.53125,147.15625 L 28.5625,147.3125 L 28.5625,147.8125 L 28.5625,148.5 L 28.8125,149 L 28.8125,149.21875 L 29.03125,149.21875 L 28.8125,149.46875 L 29.03125,149.71875 L 28.8125,149.71875 L 29.03125,149.9375 L 29.03125,150.1875 L 28.875,150.1875 L 29.03125,150.65625 L 29.03125,150.90625 L 29.28125,150.90625 L 29.28125,151.15625 L 29.03125,150.90625 L 29.28125,151.875 L 29.28125,152.09375 L 29.28125,152.59375 L 29.53125,152.8125 L 29.28125,152.8125 L 29.28125,153.0625 L 29.53125,154 L 29.53125,154.5 L 29.28125,155.21875 L 29.28125,155.4375 L 29.53125,155.6875 L 29.28125,155.6875 L 29.28125,156.15625 L 29.28125,156.625 L 29.75,156.875 L 29.53125,156.875 L 29.75,157.59375 L 30.9375,158.8125 L 30.9375,159.03125 L 31.1875,159.28125 L 31.1875,159.5 L 31.90625,160.46875 L 31.90625,160.71875 L 31.6875,160.71875 L 31.6875,160.9375 L 32.40625,161.90625 L 32.625,162.84375 L 32.875,162.84375 L 32.875,162.625 L 33.34375,163.09375 L 33.34375,163.34375 L 33.59375,163.5625 L 33.34375,163.5625 L 33.09375,163.34375 L 33.09375,163.09375 L 32.875,162.84375 L 32.875,163.09375 L 33.34375,164.0625 L 33.8125,165.25 L 33.8125,166.9375 L 33.59375,166.9375 L 33.59375,167.65625 L 33.59375,168.84375 L 33.8125,169.09375 L 33.34375,169.09375 L 33.34375,169.8125 L 33.34375,171.25 L 33.34375,171.5 L 33.5625,171.96875 L 33.5625,172.21875 L 34.0625,172.9375 L 34.0625,173.15625 L 34.28125,173.15625 L 34.28125,173.40625 L 34.0625,173.40625 L 34.28125,173.625 L 35.5,175.3125 L 36.21875,176.28125 L 35.96875,176.5 L 36.21875,177 L 36.4375,177.21875 L 36.6875,177.21875 L 36.9375,177.46875 L 37.15625,177.9375 L 37.40625,178.1875 L 37.875,178.90625 L 38.34375,179.84375 L 38.34375,181.78125 L 38.59375,182 L 38.59375,182.25 L 38.34375,182.5 L 38.34375,182.25 L 38.125,182.25 L 38.125,182.5 L 37.875,182.5 L 37.875,183.21875 L 37.65625,182.96875 L 37.65625,183.6875 L 37.40625,183.6875 L 37.40625,184.15625 L 37.15625,184.15625 L 37.40625,184.40625 L 37.15625,184.40625 L 37.15625,184.875 L 37.40625,184.875 L 37.625,185.125 L 37.625,185.34375 L 37.40625,185.125 L 37.15625,185.59375 L 37.40625,186.0625 L 37.15625,186.5625 L 37.15625,187.03125 L 37.15625,187.28125 L 36.9375,187.03125 L 36.6875,187.28125 L 36.6875,187.03125 L 36.4375,187.28125 L 36.6875,187.5 L 36.4375,187.5 L 36.6875,188.21875 L 36.9375,188.6875 L 36.9375,188.46875 L 37.15625,188.46875 L 37.15625,188.6875 L 36.9375,188.6875 L 36.9375,188.9375 L 37.40625,188.9375 L 38.125,188.6875 L 38.59375,188.21875 L 38.59375,188.46875 L 38.125,188.9375 L 38.125,189.65625 L 38.34375,189.65625 L 38.59375,189.90625 L 38.34375,189.90625 L 38.84375,191.34375 L 38.84375,191.5625 L 38.59375,191.8125 L 38.59375,192.28125 L 38.125,192.53125 L 38.25,192.53125 L 38.25,192.59375 L 38.15625,192.6875 L 38.15625,193.15625 L 37.9375,193.40625 L 37.9375,193.625 L 38.15625,193.40625 L 37.9375,193.875 L 38.40625,193.625 L 38.15625,193.875 L 37.9375,193.875 L 37.9375,193.625 L 37.6875,193.625 L 37.4375,194.09375 L 37.6875,194.34375 L 37.9375,194.34375 L 37.6875,194.59375 L 37.4375,194.34375 L 37.4375,194.59375 L 37.21875,194.59375 L 37.21875,194.8125 L 36.96875,195.0625 L 37.4375,195.0625 L 37.21875,195.3125 L 36.96875,195.0625 L 36.75,195.0625 L 36.5,195.53125 L 36.25,195.53125 L 36.25,195.78125 L 36.03125,196.5 L 36.03125,196.71875 L 35.78125,196.5 L 35.78125,196.96875 L 35.53125,196.96875 L 35.53125,197.21875 L 35.3125,197.4375 L 35.0625,197.9375 L 34.8125,198.15625 L 35.3125,197.9375 L 35.0625,198.15625 L 34.8125,198.15625 L 35.0625,198.40625 L 34.8125,198.40625 L 34.8125,198.625 L 34.8125,198.65625 L 34.8125,198.875 L 34.59375,199.34375 L 34.78125,198.71875 L 34.59375,199.125 L 34.125,199.34375 L 34.125,199.84375 L 33.875,200.0625 L 33.875,200.3125 L 34.125,200.3125 L 34.34375,200.5625 L 34.125,200.5625 L 33.875,200.5625 L 33.875,201.03125 L 33.625,201.5 L 33.875,201.5 L 33.625,201.75 L 33.40625,201.96875 L 33.15625,201.96875 L 33.40625,202.21875 L 32.9375,202.21875 L 32.9375,201.96875 L 32.4375,202.6875 L 32.21875,202.46875 L 31.96875,202.6875 L 31.96875,202.9375 L 31.71875,203.1875 L 31.71875,202.9375 L 31.5,203.40625 L 31.5,203.65625 L 31.5,203.90625 L 31.03125,204.375 L 31.25,203.90625 L 31.25,203.65625 L 30.78125,203.90625 L 30.78125,204.375 L 30.53125,204.375 L 30.78125,204.59375 L 30.3125,205.5625 L 30.3125,206.53125 L 30.0625,207.25 L 29.8125,207.25 L 29.8125,207.96875 L 29.34375,208.6875 L 29.34375,208.90625 L 29.125,208.90625 L 28.875,209.15625 L 28.625,209.15625 L 28.40625,209.40625 L 28.40625,209.625 L 28.40625,209.875 L 28.625,210.09375 L 28.875,209.875 L 29.125,209.875 L 29.125,210.09375 L 28.875,210.09375 L 28.625,210.34375 L 28.40625,210.34375 L 28.3125,210.4375 L 28.09375,210.4375 L 28.09375,210.1875 L 28.09375,209.71875 L 27.84375,209.71875 L 27.625,209.71875 L 27.625,210.1875 L 27.125,210.6875 L 26.90625,211.15625 L 26.65625,211.40625 L 26.40625,212.125 L 26.1875,212.125 L 26.1875,213.0625 L 25.6875,213.5625 L 25.6875,214.25 L 25.46875,214.5 L 25.6875,215.46875 L 25.46875,216.1875 L 25.21875,216.65625 L 25.46875,216.90625 L 25.21875,216.90625 L 25.21875,218.09375 L 25,218.34375 L 25,218.8125 L 24.75,219.0625 L 24.5,219.53125 L 24.5,220 L 24.03125,220.46875 L 24.03125,220.9375 L 23.8125,221.4375 L 23.5625,221.4375 L 23.3125,221.65625 L 23.5625,221.65625 L 22.375,222.15625 L 22.375,222.375 L 22.59375,222.375 L 22.59375,222.84375 L 22.59375,223.09375 L 22.375,223.09375 L 22.59375,222.84375 L 22.375,222.625 L 21.875,222.625 L 22.125,222.375 L 22.375,222.375 L 22.125,222.15625 L 22.125,221.90625 L 21.875,221.90625 L 21.40625,222.375 L 21.15625,222.625 L 21.15625,222.375 L 21.65625,221.90625 L 21.40625,221.90625 L 20.6875,221.90625 L 20.4375,222.15625 L 20.21875,222.15625 L 19.96875,222.15625 L 19.75,222.15625 L 19.75,222.375 L 19.5,222.375 L 19.75,222.625 L 19.75,222.75 L 19.96875,222.84375 L 19.75,222.84375 L 19.75,222.75 L 19.5,222.625 L 19.25,222.84375 L 19.5,222.84375 L 19.5,223.34375 L 19.75,223.5625 L 19.5,223.8125 L 19.75,224.0625 L 19.75,224.28125 L 19.03125,223.34375 L 18.78125,223.5625 L 18.53125,223.5625 L 18.53125,223.34375 L 18.3125,223.09375 L 18.0625,223.09375 L 17.8125,223.5625 L 17.8125,224.0625 L 18.0625,224.28125 L 18.3125,224.0625 L 18.53125,224.28125 L 18.3125,224.28125 L 17.8125,224.53125 L 17.8125,224.0625 L 17.59375,224.0625 L 17.59375,223.5625 L 17.8125,223.09375 L 17.59375,223.09375 L 17.59375,222.84375 L 17.34375,223.5625 L 17.34375,224.0625 L 17.59375,224.28125 L 17.59375,224.53125 L 17.8125,224.75 L 17.8125,225 L 17.8125,225.25 L 17.59375,225.25 L 17.8125,225 L 17.59375,224.75 L 17.34375,224.75 L 17.34375,224.0625 L 17.125,224.53125 L 17.125,224.75 L 17.125,225 L 17.125,225.25 L 17.34375,225.25 L 17.125,225.46875 L 17.125,225.71875 L 16.875,225.25 L 16.875,226.1875 L 16.625,226.6875 L 17.125,226.4375 L 17.34375,226.4375 L 17.125,226.6875 L 16.875,226.6875 L 16.875,226.90625 L 17.125,227.15625 L 16.875,227.15625 L 16.875,227.40625 L 16.625,227.40625 L 16.625,227.875 L 16.625,228.09375 L 17.34375,228.09375 L 17.59375,228.34375 L 16.875,228.34375 L 17.125,229.0625 L 17.125,229.3125 L 17.34375,229.3125 L 17.34375,229.5625 L 17.125,229.3125 L 17.125,229.5625 L 17.34375,229.78125 L 17.125,230.03125 L 17.125,229.78125 L 16.875,230.5 L 16.875,230.75 L 17.125,230.96875 L 17.125,231.21875 L 17.34375,230.96875 L 17.34375,231.21875 L 17.59375,231.46875 L 17.34375,231.46875 L 17.125,231.21875 L 16.875,231.21875 L 16.625,231.21875 L 16.875,230.96875 L 16.625,230.75 L 16.625,230.5 L 16.40625,230.75 L 16.15625,230.5 L 16.15625,230.96875 L 15.6875,231.46875 L 15.4375,232.1875 L 14.5,232.65625 L 14.25,232.875 L 14,233.59375 L 14.25,234.09375 L 14.5,233.84375 L 14.5,234.09375 L 14.25,234.09375 L 14,233.84375 L 14,235.75 L 14.25,236 L 14.25,236.46875 L 14,236.71875 L 14,236.46875 L 13.78125,236.71875 L 13.78125,236.96875 L 13.78125,237.1875 L 13.53125,237.4375 L 13.53125,237.1875 L 13.78125,236.96875 L 13.53125,236.71875 L 13.28125,236.71875 L 13.53125,236.46875 L 13.53125,235.53125 L 13.28125,235.75 L 13.28125,236.25 L 13.0625,236 L 13.0625,236.25 L 12.8125,236.46875 L 13.0625,236.9375 L 13.0625,237.4375 L 12.8125,237.65625 L 12.5625,237.4375 L 12.5625,237.65625 L 12.34375,237.90625 L 12.5625,237.90625 L 12.5625,238.53125 L 12.4375,238.53125 L 12.5,238.75 L 12,239.46875 L 12,240.4375 L 11.78125,240.4375 L 12,240.6875 L 12,240.90625 L 11.78125,240.90625 L 12,241.625 L 11.78125,242.09375 L 11.78125,242.59375 L 12,242.59375 L 12.25,242.34375 L 12.25,243.3125 L 12.96875,242.59375 L 13.1875,242.8125 L 13.1875,243.3125 L 13.4375,243.53125 L 13.4375,243.78125 L 13.1875,244.03125 L 13.1875,244.25 L 12.96875,243.78125 L 12.71875,244.03125 L 12.5,244.03125 L 12.25,243.78125 L 12,243.78125 L 12,244.03125 L 11.78125,244.03125 L 11.78125,244.5 L 11.53125,244.5 L 11.53125,244.96875 L 11.78125,244.96875 L 12,245.21875 L 11.78125,245.6875 L 11.78125,246.15625 L 12,247.125 L 12.5,247.34375 L 12.25,247.59375 L 12.5,247.84375 L 12.5,249.28125 L 12.96875,250.21875 L 12.96875,252.625 L 13.1875,252.875 L 13.1875,253.09375 L 13.4375,253.34375 L 13.1875,253.59375 L 13.6875,253.8125 L 13.6875,254.3125 L 13.90625,254.78125 L 13.90625,255.25 L 14.15625,255.71875 L 14.40625,256.4375 L 14.40625,256.6875 L 14.15625,256.9375 L 14.40625,257.15625 L 14.40625,257.625 L 14.625,258.125 L 14.625,258.34375 L 15.34375,259.0625 L 15.59375,259.5625 L 16.3125,260.03125 L 16.5625,260.5 L 16.5625,260.96875 L 16.78125,261.21875 L 16.78125,261.4375 L 17.25,261.4375 L 17.25,262.1875 L 17.75,262.1875 L 17.96875,262.40625 L 18.21875,262.40625 L 18.21875,262.65625 L 18.9375,262.875 L 19.65625,263.59375 L 19.65625,263.84375 L 19.90625,264.3125 L 19.90625,264.5625 L 19.65625,265.03125 L 19.90625,265.28125 L 19.90625,265.75 L 20.125,266.21875 L 20.125,269.09375 L 20.375,269.09375 L 20.375,269.34375 L 20.125,269.34375 L 19.90625,269.09375 L 19.90625,269.34375 L 20.375,269.59375 L 20.375,269.8125 L 20.84375,270.3125 L 21.09375,270.3125 L 21.3125,270.53125 L 21.5625,271 L 21.5625,270.78125 L 21.8125,271 L 22.03125,270.78125 L 22.03125,271.5 L 22.28125,271.71875 L 22.75,271.96875 L 23.21875,272.6875 L 23.21875,273.40625 L 23,273.40625 L 23,274.125 L 22.75,274.125 L 22.53125,273.875 L 22.53125,274.125 L 22.75,274.375 L 22.75,274.84375 L 23,274.59375 L 23,275.0625 L 23.21875,275.0625 L 23.71875,275.0625 L 23.9375,275.3125 L 23.21875,275.0625 L 23.21875,275.3125 L 23,275.0625 L 22.75,275.5625 L 22.53125,275.5625 L 22.28125,275.78125 L 21.5625,275.78125 L 20.84375,276.03125 L 20.84375,276.75 L 20.59375,277.21875 L 20.375,277.46875 L 20.59375,277.46875 L 20.59375,277.6875 L 20.84375,277.6875 L 20.59375,278.1875 L 20.59375,278.40625 L 20.375,278.65625 L 20.59375,279.125 L 20.59375,279.375 L 20.84375,279.375 L 20.84375,279.59375 L 20.59375,279.375 L 20.375,279.375 L 20.59375,279.84375 L 20.59375,280.3125 L 21.0625,280.8125 L 21.0625,281.03125 L 20.59375,281.5 L 21.0625,282 L 21.3125,282.71875 L 21.0625,282.9375 L 21.0625,283.1875 L 20.84375,283.1875 L 21.0625,283.90625 L 20.84375,284.375 L 21.0625,284.84375 L 21.0625,285.34375 L 21.09375,285.34375 L 21.09375,285.5 L 21.09375,285.53125 L 21.09375,285.5625 L 21.125,285.5625 L 21.375,285.8125 L 21.375,286.28125 L 21.125,287.21875 L 21.375,287.71875 L 21.84375,288.90625 L 21.84375,290.59375 L 22.0625,291.0625 L 22.5625,291.0625 L 23.03125,292.25 L 23.03125,294.90625 L 23.28125,295.125 L 23.28125,295.625 L 23.5,295.84375 L 23.5,296.3125 L 23.75,296.5625 L 23.96875,297.03125 L 23.96875,297.53125 L 24.21875,297.53125 L 24.21875,298 L 24.46875,299.1875 L 24.6875,299.4375 L 24.9375,299.4375 L 24.9375,299.6875 L 25.1875,299.90625 L 25.40625,300.375 L 25.875,300.875 L 25.875,301.59375 L 26.125,302.0625 L 26.375,302.3125 L 26.84375,302.3125 L 27.5625,303 L 27.8125,303 L 28.1875,303.40625 L 28.1875,303.71875 L 28.3125,303.8125 L 28.3125,304.03125 L 28.8125,304.28125 L 29.03125,304.5 L 29.03125,305.71875 L 29.28125,306.90625 L 29.53125,307.15625 L 29.28125,307.875 L 29.53125,308.34375 L 29.03125,308.59375 L 28.8125,308.59375 L 29.03125,308.8125 L 28.8125,309.0625 L 29.28125,309.0625 L 29.28125,308.8125 L 29.53125,308.8125 L 29.75,309.0625 L 29.75,309.3125 L 29.75,310.03125 L 30.21875,309.78125 L 30.46875,309.53125 L 30.21875,310.03125 L 30,310.03125 L 30,310.25 L 30.21875,310.25 L 30.71875,310.71875 L 30.71875,310.96875 L 30.9375,310.96875 L 31.4375,310.71875 L 32.15625,310.71875 L 32.625,310.96875 L 33.34375,311.4375 L 33.5625,311.9375 L 34.28125,312.15625 L 34.53125,312.625 L 34.78125,312.625 L 35,312.625 L 35.5,312.875 L 36.4375,313.84375 L 36.90625,314.0625 L 37.15625,314.0625 L 37.15625,313.84375 L 37.40625,314.0625 L 37.40625,314.3125 L 37.15625,314.0625 L 37.15625,314.3125 L 36.90625,314.5625 L 36.90625,314.78125 L 36.6875,315.03125 L 36.6875,315.25 L 35.96875,315.25 L 37.40625,315.5 L 38.34375,315.5 L 39.3125,315.96875 L 40.03125,315.96875 L 42.1875,316.21875 L 43.625,316.46875 L 45.3125,316.9375 L 46.25,317.40625 L 46.96875,317.875 L 48.1875,318.59375 L 48.65625,319.09375 L 48.65625,319.3125 L 48.90625,319.8125 L 49.375,320.28125 L 50.3125,320.75 L 50.5625,321 L 51.28125,321.21875 L 51.75,321.21875 L 52.25,321.46875 L 52.46875,321.9375 L 52.71875,322.1875 L 52.71875,322.65625 L 52.9375,323.125 L 53.4375,323.375 L 54.15625,323.375 L 55.34375,322.90625 L 56.5625,322.90625 L 56.5625,322.65625 L 57.28125,322.90625 L 57.5,322.90625 L 57.5,322.65625 L 60.875,322.65625 L 61.8125,322.1875 L 62.0625,322.1875 L 63.03125,321.9375 L 64.4375,320.96875 L 64.4375,320.75 L 65.40625,319.78125 L 65.875,319.5625 L 66.59375,319.0625 L 66.84375,319.0625 L 68.75,317.625 L 70.6875,316.4375 L 71.40625,316.1875 L 71.40625,316.40625 L 71.53125,316.28125 L 72.46875,315.8125 L 72.96875,315.5625 L 74.875,314.84375 L 77.75,313.875 L 80.625,313.1875 L 81.125,313.1875 L 82.0625,312.9375 L 82.78125,312.9375 L 83.75,313.40625 L 85.1875,313.40625 L 85.1875,313.875 L 85.65625,313.65625 L 85.90625,313.65625 L 86.375,313.40625 L 87.09375,313.40625 L 87.5625,312.9375 L 87.5625,312.6875 L 87.09375,312.46875 L 86.625,311.96875 L 86.625,311.75 L 87.09375,311.75 L 86.84375,311.96875 L 87.34375,312.46875 L 87.8125,312.46875 L 87.8125,312.6875 L 88.0625,312.9375 L 88.53125,312.46875 L 89,311.96875 L 88.75,311.96875 L 88.75,311.75 L 89,311.96875 L 89.46875,311.96875 L 89.46875,311.75 L 89.71875,311.5 L 90.6875,310.78125 L 91.625,310.78125 L 91.625,310.5625 L 90.90625,310.5625 L 90.90625,310.3125 L 91.15625,310.3125 L 91.15625,310.0625 L 90.90625,310.0625 L 90.90625,309.84375 L 91.15625,309.84375 L 91.375,310.3125 L 91.875,310.3125 L 91.625,310.78125 L 92.34375,310.78125 L 92.09375,310.5625 L 92.34375,310.0625 L 92.59375,309.84375 L 92.8125,309.84375 L 93.0625,310.0625 L 93.0625,309.84375 L 92.8125,309.34375 L 93.53125,308.625 L 94.03125,308.40625 L 93.78125,308.40625 L 93.78125,308.15625 L 94.25,308.15625 L 94.25,308.40625 L 94.5,308.15625 L 94.96875,308.40625 L 94.96875,308.875 L 95.1875,308.875 L 95.1875,308.40625 L 95.4375,308.40625 L 95.4375,307.9375 L 95.1875,307.6875 L 95.4375,307.6875 L 95.4375,307.4375 L 95.1875,307.21875 L 95.1875,306.96875 L 95.4375,306.96875 L 95.1875,306.71875 L 95.4375,306.71875 L 95.4375,306.96875 L 95.6875,307.21875 L 95.4375,307.4375 L 95.6875,307.6875 L 95.6875,307.4375 L 95.90625,307.4375 L 95.90625,306.96875 L 95.6875,306.71875 L 95.6875,306.5 L 95.90625,305.78125 L 96.625,304.5625 L 96.875,304.09375 L 97.34375,304.09375 L 97.34375,303.875 L 97.125,303.375 L 97.125,303.15625 L 97.34375,302.4375 L 97.59375,301.9375 L 97.59375,301.71875 L 97.8125,301.25 L 98.0625,300.53125 L 98.0625,300.28125 L 98.3125,300.28125 L 98.3125,299.8125 L 98.78125,298.84375 L 99.03125,298.125 L 99.03125,297.875 L 99.25,298.125 L 99.5,296.6875 L 99.5,295.71875 L 99.75,294.78125 L 99.96875,294.78125 L 99.75,294.53125 L 99.96875,294.3125 L 99.96875,294.53125 L 100.21875,293.34375 L 100.4375,293.09375 L 100.4375,292.875 L 100.6875,292.375 L 100.3125,292.375 L 100.4375,292.625 L 100.21875,292.375 L 100.3125,292.375 L 100.21875,292.15625 L 99.96875,292.15625 L 99.96875,291.90625 L 100.21875,292.15625 L 100.4375,292.15625 L 100.6875,291.90625 L 100.9375,291.90625 L 101.15625,291.65625 L 101.15625,291.1875 L 101.40625,290.71875 L 101.65625,289.75 L 101.40625,289.53125 L 101.65625,289.53125 L 101.65625,289.28125 L 101.875,289.03125 L 101.875,288.8125 L 102.34375,288.09375 L 103.0625,286.65625 L 103.3125,286.65625 L 103.78125,285.71875 L 103.78125,285.6875 L 103.78125,285.65625 L 103.84375,285.65625 L 103.9375,285.5625 L 103.6875,284.84375 L 104.40625,283.15625 L 104.875,281.96875 L 105.34375,281 L 105.59375,280.75 L 105.59375,280.0625 L 106.0625,278.375 L 106.0625,277.40625 L 106.5625,276.4375 L 106.78125,276.21875 L 106.78125,275.75 L 106.5625,275.5 L 106.3125,275.75 L 106.3125,275.5 L 106.0625,275.5 L 106.0625,275.25 L 105.84375,275.25 L 105.84375,275.03125 L 106.3125,275.03125 L 106.5625,274.78125 L 106.5625,275.25 L 106.78125,275.5 L 106.78125,274.53125 L 107.03125,274.53125 L 107.25,274.3125 L 107.25,273.34375 L 107.5,272.875 L 107.75,271.90625 L 108.21875,270.96875 L 108.4375,270.25 L 108.4375,270 L 108.21875,270 L 107.5,270.25 L 108.4375,269.75 L 108.4375,269.28125 L 108.6875,269.0625 L 108.6875,268.5625 L 108.9375,267.375 L 108.6875,267.125 L 108.9375,267.125 L 108.9375,266.40625 L 109.1875,266.1875 L 109.1875,264.75 L 109.40625,264.75 L 109.65625,264.03125 L 109.875,263.0625 L 110.125,262.59375 L 110.375,262.34375 L 110.59375,261.625 L 110.59375,260.90625 L 110.84375,259.9375 L 111.0625,259.21875 L 111.3125,258.28125 L 111.0625,257.5625 L 111.5625,256.34375 L 111.78125,253.96875 L 112.03125,252.53125 L 112.5,250.375 L 112.28125,250.375 L 112.75,248.9375 L 113,248.4375 L 113,248.21875 L 113.21875,248.21875 L 113.46875,247.25 L 113.6875,245.8125 L 114.1875,245.09375 L 114.65625,243.65625 L 114.65625,243.53125 L 114.75,243.53125 L 114.75,240.34375 L 115.75,240.34375 L 115.75,238.875 L 116.5625,238.875 L 116.65625,238.75 L 116.875,238.75 L 117.375,237.8125 L 117.59375,237.5625 L 117.59375,237.3125 L 117.84375,236.84375 L 117.84375,236.375 L 118.5625,234.46875 L 118.3125,234.21875 L 117.84375,234.21875 L 117.59375,233.96875 L 116.875,233.5 L 116.875,233.25 L 117.375,233.75 L 117.84375,233.96875 L 118.5625,233.96875 L 118.5625,234.21875 L 119.28125,233.25 L 119.28125,232.3125 L 119.75,231.8125 L 120,230.625 L 120,230.375 L 120,230.15625 L 120.21875,230.15625 L 120.6875,228 L 120.9375,227.53125 L 121.40625,226.8125 L 121.90625,225.375 L 121.90625,223.21875 L 122.125,222.96875 L 121.90625,222.96875 L 121.65625,222.71875 L 122.125,222.71875 L 122.125,222 L 121.65625,222 L 121.40625,221.78125 L 121.65625,221.78125 L 122.125,221.53125 L 122.375,221.78125 L 122.375,221.53125 L 123.5625,219.125 L 123.8125,218.1875 L 124.28125,217.46875 L 124.53125,216.5 L 124.53125,215.78125 L 124.28125,216.25 L 124.28125,215.3125 L 124.53125,215.3125 L 124.53125,214.34375 L 125,213.125 L 125,212.90625 L 125.46875,211.46875 L 125.46875,210.5 L 125.71875,209.78125 L 126.1875,208.09375 L 126.65625,206.1875 L 126.90625,205.9375 L 126.90625,205.46875 L 126.65625,205.71875 L 126.1875,206.1875 L 126.1875,205.71875 L 126.65625,205.71875 L 126.65625,205.46875 L 126.90625,205.25 L 126.90625,205.46875 L 127.15625,205.46875 L 127.15625,205.25 L 127.625,204.75 L 127.84375,203.8125 L 128.09375,203.09375 L 128.09375,202.125 L 127.84375,201.90625 L 128.09375,201.40625 L 128.34375,200.46875 L 128.34375,200.21875 L 128.8125,199.75 L 128.8125,199.5 L 129.28125,198.3125 L 129.0625,198.3125 L 129.0625,198.5625 L 128.8125,198.5625 L 128.8125,198.3125 L 129.28125,197.34375 L 129.53125,197.34375 L 129.28125,198.0625 L 129.75,197.125 L 130.46875,196.40625 L 131.1875,194 L 131.6875,193.28125 L 131.6875,193.03125 L 131.4375,192.8125 L 131.40625,192.8125 L 131.40625,192.78125 L 131.4375,192.78125 L 131.53125,192.6875 L 130.8125,192.1875 L 130.5625,192.1875 L 130.5625,191.96875 L 130.8125,191.96875 L 131.53125,192.4375 L 131.75,192.4375 L 131.75,192.6875 L 132,192.6875 L 132,192.4375 L 132.46875,191.71875 L 132.71875,191.25 L 132.71875,190.53125 L 132.46875,190.53125 L 132.46875,190.28125 L 132.25,190.0625 L 132.25,188.625 L 132.96875,186.21875 L 132.96875,185 L 133.1875,184.53125 L 133.6875,183.8125 L 133.6875,183.34375 L 133.90625,183.34375 L 134.15625,182.375 L 134.625,181.65625 L 134.875,180.9375 L 135.34375,179.75 L 135.34375,179.5 L 135.125,179.5 L 135.34375,179.03125 L 135.34375,179.5 L 135.8125,178.5625 L 135.8125,178.0625 L 136.0625,177.59375 L 136.0625,177.375 L 136.28125,177.375 L 136.28125,176.15625 L 136.53125,174.71875 L 136.28125,174.71875 L 136.53125,174.5 L 136.53125,174 L 136.78125,174 L 136.53125,174.5 L 136.78125,174.5 L 137,173.78125 L 137.5,172.5625 L 137.5,172.34375 L 137.25,172.34375 L 137.5,172.09375 L 137.5,172.34375 L 137.71875,171.84375 L 138.1875,169.9375 L 138.4375,169.6875 L 138.4375,169.46875 L 137.25,168.25 L 138.1875,168.96875 L 138.4375,169.46875 L 139.40625,167.53125 L 139.40625,166.8125 L 140.34375,164.90625 L 141.0625,162.25 L 141.34375,161.71875 L 140.875,161.71875 L 141.125,161.25 L 141.125,160.53125 L 141.59375,160.75 L 141.59375,161 L 141.4375,161.53125 L 142.28125,159.875 L 142.75,158.4375 L 142.5,158.4375 L 142.75,158.1875 L 143.46875,156.75 L 143.6875,155.0625 L 143.9375,154.34375 L 144.1875,153.875 L 144.1875,152.6875 L 144.40625,151.96875 L 144.65625,151.46875 L 144.90625,151.25 L 145.625,151.25 L 145.625,151 L 145.375,151 L 145.375,150.53125 L 145.125,150.28125 L 144.90625,149.8125 L 144.90625,149.34375 L 145.125,148.875 L 145.375,148.375 L 145.375,147.53125 L 145.4375,147.53125 L 145.4375,147.3125 L 145.6875,146.59375 L 145.6875,146.375 L 145.90625,145.65625 L 146.625,143.96875 L 147.125,142.53125 L 147.125,141.8125 L 147.59375,140.59375 L 147.59375,140.125 L 147.34375,140.125 L 147.125,139.65625 L 146.875,139.40625 L 146.40625,139.65625 L 146.625,139.40625 L 146.875,139.40625 L 146.875,138.46875 L 146.625,138.21875 L 146.625,137.75 L 146.875,136.78125 L 146.40625,137.03125 L 146.40625,135.8125 L 146.625,135.8125 L 146.625,135.59375 L 146.15625,135.59375 L 146.15625,135.125 L 145.9375,135.125 L 146.15625,134.15625 L 145.9375,134.15625 L 145.6875,133.6875 L 145.4375,133.6875 L 145.4375,133.4375 L 145.21875,133.4375 L 145.21875,132.96875 L 145.4375,131.75 L 145.9375,130.5625 L 145.9375,130.3125 L 146.15625,130.09375 L 146.40625,129.375 L 146.15625,129.59375 L 145.9375,129.59375 L 146.15625,129.375 L 146.40625,129.375 L 146.875,128.65625 L 147.125,128.1875 L 147.125,127.46875 L 147.34375,127.21875 L 147.59375,126.96875 L 147.59375,126.5 L 147.8125,126.03125 L 147.8125,125.5625 L 148.0625,125.3125 L 148.0625,125.0625 L 148.3125,124.84375 L 148.3125,124.59375 L 148.53125,124.34375 L 148.78125,123.875 L 149.03125,123.65625 L 149.03125,122.9375 L 149.25,122.6875 L 150.6875,122.21875 L 150.6875,121.96875 L 151.40625,121.96875 L 153.34375,121.71875 L 154.0625,121.5 L 154.28125,121.25 L 153.5625,121.25 L 153.34375,121.03125 L 152.84375,120.78125 L 152.375,120.3125 L 152.15625,119.8125 L 151.90625,119.59375 L 152.15625,119.34375 L 151.90625,119.125 L 151.90625,118.40625 L 152.375,117.90625 L 152.625,118.15625 L 152.84375,118.15625 L 152.84375,117.90625 L 153.09375,117.6875 L 153.09375,117.4375 L 153.34375,117.1875 L 153.34375,116.96875 L 153.5625,116.71875 L 153.5625,116.5 L 153.5625,116.25 L 154.28125,115.53125 L 154.53125,115.0625 L 154.53125,114.8125 L 154.28125,114.5625 L 154.53125,114.34375 L 154.53125,113.375 L 154.78125,113.375 L 154.78125,113.15625 L 155,112.90625 L 155,112.65625 L 154.78125,112.4375 L 155,112.1875 L 154.78125,112.1875 L 154.53125,112.4375 L 154.28125,111.9375 L 154.28125,111.21875 L 154.0625,110.75 L 154.0625,110.53125 L 153.8125,110.28125 L 153.8125,110.03125 L 154.0625,109.8125 L 154.0625,109.5625 L 154.28125,109.3125 L 154.0625,109.3125 L 154.53125,108.84375 L 154.53125,108.125 L 154.78125,108.125 L 154.78125,107.40625 L 154.53125,107.1875 L 154.28125,106.6875 L 154.0625,106.6875 L 153.8125,106.46875 L 153.34375,106.46875 L 153.34375,106.21875 L 152.625,106.21875 L 152.375,106.21875 L 152.375,105.96875 L 152.15625,105.96875 L 151.65625,105.5 L 151.4375,105.5 L 151.65625,105.28125 L 151.4375,105.03125 L 151.4375,104.3125 L 150.9375,103.84375 L 150.9375,103.125 L 151.1875,102.625 L 151.1875,102.4375 L 151.1875,101.71875 L 151.9375,100.53125 L 152.15625,100.28125 L 151.6875,100.0625 L 151.6875,99.5625 L 151.4375,99.09375 L 151.4375,98.625 L 151.21875,98.375 L 151.21875,97.90625 L 150.96875,97.4375 L 150.71875,97.1875 L 150.5,96.21875 L 150.25,95.75 L 150.25,95.5 L 150.5,95.03125 L 150.25,94.5625 L 150.5,94.09375 L 150.25,93.84375 L 150.25,93.59375 L 150.03125,93.59375 L 149.78125,93.375 L 149.53125,92.90625 L 149.53125,92.65625 L 149.78125,92.1875 L 150.03125,91.9375 L 150.5,91.21875 L 151.6875,90.03125 L 152.65625,90.03125 L 152.65625,90.25 L 152.875,90.03125 L 153.84375,89.78125 L 154.8125,89.78125 L 155.03125,89.5625 L 155.28125,89.78125 L 155.75,90.03125 L 156,90.03125 L 155.75,90.5 L 155.75,90.96875 L 156,91.21875 L 156,91.4375 L 155.75,91.9375 L 155.75,92.875 L 156.21875,93.125 L 156.46875,93.59375 L 156.9375,93.84375 L 157.1875,94.0625 L 157.1875,94.3125 L 156.9375,95.28125 L 157.1875,96 L 157.1875,96.46875 L 157.4375,96.9375 L 157.875,97.375 L 157.90625,97.4375 L 157.90625,97.53125 L 157.9375,97.40625 L 158.15625,97.40625 L 158.40625,97.625 L 158.40625,97.875 L 158.15625,98.34375 L 158.40625,99.0625 L 158.40625,99.5625 L 159.34375,100.5 L 160.0625,100.75 L 161.03125,101.21875 L 161.28125,101.46875 L 161.28125,102.1875 L 161.5,102.40625 L 161.75,102.1875 L 162.6875,102.1875 L 162.9375,101.9375 L 162.9375,101.6875 L 162.6875,101.46875 L 163.4375,100.75 L 163.1875,100.5 L 163.65625,100.03125 L 164.125,99.78125 L 164.375,99.5625 L 164.375,99.0625 L 164.625,98.59375 L 164.84375,98.59375 L 165.3125,98.34375 L 165.3125,98.125 L 164.84375,98.125 L 165.09375,97.40625 L 165.5625,96.1875 L 166.03125,94.75 L 166.75,93.3125 L 167.25,92.59375 L 167.25,91.1875 L 167.46875,90.6875 L 167.9375,90.21875 L 167.71875,89.75 L 167.9375,89.5 L 167.9375,88.3125 L 168.1875,88.3125 L 168.4375,87.8125 L 168.4375,87.59375 L 168.1875,86.875 L 168.1875,86.40625 L 167.9375,85.6875 L 167.9375,85.4375 L 167.71875,85.1875 L 167.46875,85.1875 L 167.46875,84.96875 L 167.25,84.96875 L 167.25,84.71875 L 167,84.71875 L 167.25,84.46875 L 167.25,84.25 L 166.53125,83.28125 L 165.5625,82.34375 L 165.5625,81.84375 L 165.3125,81.84375 L 165.3125,81.625 L 165.5625,81.625 L 165.3125,81.125 L 165.5625,80.90625 L 165.3125,80.65625 L 165.3125,80.1875 L 165.09375,80.1875 L 165.09375,79.9375 L 164.84375,79.71875 L 164.84375,79.21875 L 164.625,79 L 164.375,79 L 164.125,78.75 L 164.375,78.28125 L 164.125,78.28125 L 163.65625,77.5625 L 163.65625,77.3125 L 163.65625,76.59375 L 163.40625,76.375 L 163.40625,75.875 L 163.1875,75.875 L 163.1875,75.40625 L 162.6875,74.9375 L 162.6875,73.03125 L 162.46875,72.78125 L 162.46875,72.0625 L 162.21875,72.0625 L 162.21875,71.59375 L 162,71.09375 L 162,68.9375 L 161.75,68.9375 L 161.75,67.03125 L 162.21875,65.59375 L 162.21875,64.625 L 162,64.15625 L 161.75,64.15625 L 161.03125,63.4375 L 161.03125,62.25 L 161.28125,61.28125 L 161.5,59.375 L 161.5,59.125 L 161.28125,59.125 L 161.03125,58.90625 L 161.03125,58.65625 L 160.78125,58.65625 L 160.78125,58.40625 L 160.78125,58.1875 L 160.75,58.1875 L 160.75,58.09375 L 160.8125,58.09375 L 160.8125,58.03125 L 160.8125,57.8125 L 160.8125,56.59375 L 161.03125,55.875 L 161.03125,55.65625 L 160.8125,55.65625 L 161.03125,54.6875 L 161.03125,53.5 L 160.8125,53.25 L 160.5625,52.53125 L 160.3125,52.28125 L 160.3125,51.8125 L 160.09375,51.5625 L 159.84375,51.09375 L 159.625,51.09375 L 159.625,50.625 L 159.84375,51.09375 L 159.84375,49.90625 L 159.625,49.4375 L 159.375,49.4375 L 159.125,49.1875 L 159.125,48.21875 L 158.90625,47.75 L 158.4375,47.5 L 158.4375,47.03125 L 158.4375,46.8125 L 158.4375,46.0625 L 158.1875,46.0625 L 158.1875,45.84375 L 158.1875,45.34375 L 158.4375,44.625 L 158.4375,43.6875 L 157.9375,43.6875 L 157.9375,43.875 L 157.9375,44.125 L 157.6875,44.125 L 157.4375,43.875 L 157.4375,43.15625 L 156.96875,43.15625 L 157.4375,42.9375 L 157.21875,42.9375 L 157.21875,42.6875 L 157.4375,42.6875 L 157.4375,42.4375 L 156.96875,41.96875 L 156.96875,41.5 L 156.71875,41.25 L 156.71875,41 L 156.5,40.78125 L 156.5,40.53125 L 156.25,40.3125 L 156.03125,40.78125 L 155.78125,41.03125 L 156.25,40.3125 L 156.25,40.0625 L 156.5,39.09375 L 156.25,38.625 L 156.5,37.90625 L 156.25,37.6875 L 156.25,37.4375 L 156.5,36.96875 L 156.25,36.71875 L 156.03125,36.71875 L 156.03125,36.46875 L 155.78125,36.46875 L 155.3125,35.53125 L 155.53125,35.28125 L 155.0625,35.0625 L 154.59375,35.0625 L 154.59375,34.5625 L 154.34375,34.34375 L 154.59375,34.09375 L 154.8125,34.09375 L 154.8125,33.84375 L 154.59375,33.625 L 153.625,33.625 L 153.40625,33.15625 L 153.625,33.15625 L 153.15625,32.65625 L 153.40625,32.4375 L 153.40625,32.1875 L 153.15625,32.1875 L 153.40625,31.71875 L 152.6875,31.46875 L 152.6875,31.25 L 152.4375,31.25 L 152.6875,31 L 152.1875,31 L 152.1875,31.25 L 151.96875,31 L 151.96875,30.53125 L 151.71875,30.53125 L 151.71875,30.28125 L 151.46875,30.28125 L 151.25,30.75 L 151.25,31.21875 L 151,31.46875 L 150.78125,31.46875 L 151,31.71875 L 151,31.9375 L 150.78125,31.71875 L 150.53125,31.71875 L 150.28125,31.9375 L 150.0625,31.71875 L 150.78125,31.21875 L 150.78125,31 L 150.53125,30.53125 L 150.28125,30.28125 L 150.28125,29.5625 L 149.34375,28.59375 L 149.09375,28.59375 L 148.875,28.375 L 148.875,28.59375 L 148.625,28.84375 L 148.375,28.59375 L 148.625,28.375 L 148.375,28.375 L 148.15625,28.59375 L 148.15625,27.65625 L 148.375,27.40625 L 148.375,27.1875 L 148.625,26.9375 L 148.375,26.6875 L 148.375,26.21875 L 147.90625,25.96875 L 148.15625,25.96875 L 148.15625,24.78125 L 148.375,24.78125 L 148.375,25.25 L 148.625,25.5 L 148.375,25.5 L 148.625,25.71875 L 148.375,25.71875 L 148.375,25.96875 L 149.09375,25.96875 L 149.09375,25.71875 L 148.875,25.5 L 149.09375,25.5 L 148.875,24.78125 L 148.875,24.53125 L 148.625,24.53125 L 148.625,23.8125 L 148.375,23.34375 L 148.15625,23.59375 L 148.15625,23.8125 L 148.375,23.8125 L 148.375,24.3125 L 148.15625,24.0625 L 148.15625,23.8125 L 147.90625,23.8125 L 147.6875,24.0625 L 147.90625,24.3125 L 147.4375,24.3125 L 147.4375,23.8125 L 147.65625,23.59375 L 147.4375,23.59375 L 147.4375,23.34375 L 147.1875,23.34375 L 146.9375,23.59375 L 146.71875,23.59375 L 146.71875,23.34375 L 146.9375,23.34375 L 147.1875,22.875 L 147.4375,22.875 L 147.4375,23.09375 L 147.65625,23.34375 L 147.65625,23.59375 L 147.90625,23.34375 L 147.90625,23.09375 L 147.65625,23.09375 L 147.90625,22.625 L 147.65625,22.375 L 147.65625,22.15625 L 147.4375,22.15625 L 147.4375,21.90625 L 146.71875,21.90625 L 146.25,22.15625 L 146.25,22.375 L 146,22.375 L 145.75,22.15625 L 146,22.15625 L 146,21.90625 L 145.53125,21.4375 L 145.53125,21.6875 L 145.28125,21.4375 L 145.53125,21.4375 L 145.53125,21.1875 L 145.28125,21.1875 L 145.28125,20.71875 L 145.03125,20.46875 L 145.03125,20 L 144.8125,20 L 145.03125,19.78125 L 144.8125,19.78125 L 144.8125,19.53125 L 144.5625,19.53125 L 144.09375,19.0625 L 143.84375,19.28125 L 143.625,19.78125 L 143.84375,19.78125 L 143.84375,20 L 144.09375,20.25 L 144.09375,20.46875 L 143.84375,20.96875 L 143.125,20.96875 L 142.90625,20.71875 L 142.90625,20.46875 L 143.125,20.25 L 143.125,20 L 142.40625,20 L 142.65625,20.25 L 142.40625,20.25 L 142.1875,20.71875 L 141.9375,20.46875 L 141.9375,20.71875 L 141.6875,20.71875 L 141.46875,20.71875 L 141.21875,21.1875 L 141,20.96875 L 141,20.71875 L 140.5,20.71875 L 140.75,20.46875 L 140.75,20.25 L 141,20.25 L 140.75,20 L 141,20 L 140.75,19.78125 L 141,19.53125 L 141.21875,19.53125 L 141.46875,19.78125 L 141.46875,20.25 L 141.6875,20.46875 L 141.9375,20.46875 L 141.9375,20.25 L 142.1875,20.25 L 142.40625,19.78125 L 142.40625,19.28125 L 141.9375,19.28125 L 141.6875,19.0625 L 141.46875,19.28125 L 140.96875,19.28125 L 141.21875,19.0625 L 141.21875,18.8125 L 141.6875,18.5625 L 141.6875,18.34375 L 141.21875,18.34375 L 141.21875,18.09375 L 141.46875,17.625 L 141.6875,17.375 L 141.9375,17.375 L 141.9375,17.625 L 142.1875,17.875 L 141.9375,18.09375 L 142.1875,18.09375 L 142.40625,18.34375 L 142.40625,18.09375 L 142.65625,18.34375 L 142.875,18.34375 L 143.125,18.09375 L 142.875,18.09375 L 142.875,17.875 L 143.125,17.875 L 143.125,17.625 L 143.375,17.875 L 143.59375,17.875 L 143.59375,18.09375 L 144.3125,18.8125 L 144.3125,18.34375 L 144.09375,18.34375 L 144.09375,17.375 L 143.84375,17.375 L 143.84375,16.4375 L 144.09375,16.65625 L 144.09375,16.4375 L 143.84375,16.1875 L 143.84375,15.9375 L 143.59375,15.71875 L 143.84375,15.46875 L 143.125,15.46875 L 143.125,15.25 L 143.375,15.25 L 143.375,14.75 L 143.125,15 L 143.125,14.28125 L 142.875,14.03125 L 142.78125,14.03125 L 142.78125,13.875 L 142.8125,13.875 L 142.8125,13.40625 L 142.5625,13.15625 L 142.3125,13.15625 L 142.3125,13.40625 L 142.09375,13.40625 L 142.3125,13.15625 L 142.3125,12.9375 L 141.625,12.9375 z M 142.875,18.34375 L 142.65625,18.5625 L 142.65625,18.8125 L 142.875,18.8125 L 142.875,18.34375 z M 155.0625,35.0625 L 155.3125,34.8125 L 155.0625,34.5625 L 155.0625,35.0625 z M 152.625,118.15625 L 152.375,118.15625 L 152.375,118.40625 L 152.625,118.15625 z M 141.4375,161.53125 L 141.34375,161.71875 L 141.375,161.71875 L 141.4375,161.53125 z M 35.96875,315.25 L 36.1875,315.03125 L 36.1875,314.78125 L 35.96875,315.03125 L 35.96875,315.25 z M 36.1875,314.78125 L 36.1875,314.3125 L 35.96875,313.84375 L 35.71875,313.84375 L 36.1875,314.78125 z M 35.71875,313.84375 L 35.5,313.34375 L 35.46875,313.34375 L 35.71875,313.84375 z M 34.78125,312.625 L 34.78125,312.875 L 35,312.875 L 34.78125,312.625 z M 29.75,309.3125 L 29.53125,309.0625 L 29.28125,309.0625 L 29.75,309.3125 z M 16.875,225.25 L 17.125,225 L 16.875,224.53125 L 16.875,225.25 z M 28.09375,210.1875 L 28.3125,210.4375 L 28.3125,210.1875 L 28.09375,210.1875 z M 38.125,192.53125 L 38.34375,192.28125 L 38.34375,192.0625 L 38.125,192.53125 z M 33.34375,169.09375 L 33.5625,168.84375 L 33.34375,168.625 L 33.34375,169.09375 z M 28.875,150.1875 L 28.8125,149.9375 L 28.8125,150.1875 L 28.875,150.1875 z M 32.5,126.09375 L 32.625,125.96875 L 32.75,125.625 L 32.5,126.09375 z M 32.75,125.625 L 32.875,125.75 L 33,125.625 L 32.75,125.625 z M 56.90625,104.8125 L 57.125,104.59375 L 56.90625,104.59375 L 56.90625,104.8125 z M 58.3125,103.15625 L 58.09375,103.15625 L 58.09375,103.40625 L 58.3125,103.15625 z M 81.3125,100.59375 L 81.78125,100.84375 L 82.25,101.0625 L 82.5,101.0625 L 81.3125,100.125 L 81.0625,100.125 L 81.3125,100.34375 L 81.3125,100.59375 z M 82.03125,91.5 L 82.5,91.28125 L 82.25,91.28125 L 82.03125,91.5 z M 115.4375,48.375 L 115.1875,48.15625 L 115.1875,48.375 L 115.4375,48.375 z M 121.875,50.0625 L 122.125,49.84375 L 122.125,49.59375 L 121.875,49.59375 L 121.875,50.0625 z M 131.1875,24.0625 L 131.1875,24.3125 L 131.4375,24.3125 L 131.1875,24.0625 z M 140.25,15 L 140.03125,15 L 140.03125,15.25 L 140.25,15 z M 140.96875,14.53125 L 140.96875,14.28125 L 140.75,14.03125 L 140.5,14.28125 L 140.75,14.53125 L 140.75,14.28125 L 140.96875,14.53125 z M 112.5625,59.96875 L 112.34375,60.21875 L 112.5625,60.21875 L 112.5625,59.96875 z M 114.71875,64.3125 L 114.9375,64.5 L 114.9375,64.96875 L 114.90625,64.9375 L 114.90625,64.59375 L 114.71875,64.75 L 114.71875,64.3125 z M 98.03125,81.4375 L 98.03125,81.6875 L 97.78125,81.6875 L 98.03125,81.4375 z M 86.3125,88.875 L 86.5625,89.125 L 86.5625,89.375 L 86.3125,89.59375 L 86.5625,89.84375 L 86.78125,89.84375 L 86.5625,90.0625 L 86.5625,89.84375 L 86.3125,89.84375 L 86.0625,89.59375 L 86.0625,89.375 L 86.3125,89.375 L 86.3125,89.125 L 86.0625,89.125 L 85.625,89.34375 L 85.84375,89.125 L 86.0625,89.125 L 86.3125,88.875 z M 68.15625,104.84375 L 68.65625,104.84375 L 69.125,105.3125 L 69.125,105.5625 L 68.65625,105.5625 L 68.65625,105.8125 L 68.875,105.8125 L 68.875,106.03125 L 69.125,106.53125 L 68.875,106.75 L 68.875,106.53125 L 68.65625,106.53125 L 68.65625,106.28125 L 68.40625,106.03125 L 68.40625,106.28125 L 67.6875,106.53125 L 67.6875,106.03125 L 67.4375,106.03125 L 67.21875,106.28125 L 66.75,106.03125 L 66.75,105.8125 L 66.25,105.8125 L 66.5,105.5625 L 67.21875,105.5625 L 67.4375,105.3125 L 67.9375,105.3125 L 68.15625,105.09375 L 68.15625,104.84375 z M 37.53125,115.34375 L 37.75,115.34375 L 38,115.8125 L 37.75,115.8125 L 37.75,115.59375 L 37.53125,115.34375 z M 127.1875,132 L 127.4375,132 L 127.4375,132.21875 L 127.90625,132.46875 L 127.90625,133.1875 L 128.15625,133.65625 L 128.15625,133.90625 L 127.90625,134.375 L 127.65625,134.625 L 127.65625,135.09375 L 127.4375,135.5625 L 127.1875,135.5625 L 126.46875,135.8125 L 126.46875,136.0625 L 126.71875,136.28125 L 126.71875,136.75 L 126.25,136.75 L 126,137 L 126,138.1875 L 125.53125,139.15625 L 125.28125,139.40625 L 125.28125,139.15625 L 125.03125,138.6875 L 125.03125,137.71875 L 124.8125,136.53125 L 125.75,135.8125 L 126,135.34375 L 126.46875,135.09375 L 126.46875,134.625 L 126.71875,134.625 L 126.71875,134.375 L 126.25,133.90625 L 126.25,133.4375 L 126.46875,133.1875 L 126.71875,133.1875 L 126.9375,133.4375 L 127.1875,133.4375 L 127.1875,133.1875 L 126.9375,132.46875 L 127.1875,132 z M 88.5625,170.84375 L 88.8125,170.84375 L 89.53125,171.5625 L 89.75,171.5625 L 90,171.34375 L 90.25,171.34375 L 89.75,171.8125 L 89.75,172.0625 L 89.53125,172.0625 L 89.28125,172.28125 L 88.8125,172.53125 L 88.5625,172.53125 L 88.3125,172.28125 L 88.8125,171.8125 L 88.8125,171.3125 L 88.5625,171.09375 L 88.5625,170.84375 z M 136.0625,176.65625 L 136.0625,176.875 L 135.8125,176.875 L 136.0625,176.65625 z M 38.34375,182.71875 L 38.59375,182.71875 L 38.34375,183.21875 L 38.34375,182.71875 z M 36.5,195.78125 L 36.75,195.78125 L 36.5,196 L 36.5,195.78125 z M 27.375,210.6875 L 27.375,211.15625 L 27.125,211.15625 L 27.125,210.90625 L 27.375,210.6875 z M 19.75,224.78125 L 19.96875,225.25 L 19.96875,225.46875 L 20.21875,225.71875 L 19.96875,225.71875 L 19.96875,225.46875 L 19.75,225 L 19.75,224.78125 z M 59.75,226.0625 L 60,226.28125 L 60,227.25 L 59.53125,227.25 L 59.28125,226.75 L 59.53125,226.28125 L 59.75,226.0625 z M 21.375,235.875 L 21.375,236.125 L 21.59375,236.375 L 21.84375,236.375 L 22.78125,236.84375 L 23.03125,237.09375 L 22.78125,237.8125 L 22.5625,238.03125 L 22.0625,238.28125 L 21.125,238.5 L 20.875,238.5 L 20.65625,238.28125 L 20.875,238.03125 L 20.65625,237.8125 L 20.15625,237.8125 L 19.9375,237.09375 L 19.9375,236.84375 L 20.15625,236.84375 L 20.15625,237.3125 L 20.40625,237.5625 L 20.875,237.5625 L 20.875,237.3125 L 20.875,236.84375 L 20.875,236.59375 L 21.125,236.125 L 21.375,235.875 z M 23.53125,243.09375 L 23.75,243.09375 L 23.75,243.3125 L 24,243.09375 L 24.25,243.3125 L 24.25,243.8125 L 24,244.03125 L 23.75,244.03125 L 23.03125,243.5625 L 23.28125,243.5625 L 23.53125,243.5625 L 23.53125,243.09375 z M 22.8125,285.8125 L 23.0625,285.8125 L 23.0625,286.3125 L 23.53125,286.78125 L 23.75,288.21875 L 24,289.1875 L 24,290.125 L 23.75,289.65625 L 23.53125,289.40625 L 23.53125,288.9375 L 23.53125,288.6875 L 23.28125,288.4375 L 23.28125,287.96875 L 23.0625,287.71875 L 23.0625,287.25 L 22.5625,286.78125 L 22.5625,286.53125 L 22.8125,286.3125 L 22.8125,285.8125 z M 80.40625,312.46875 L 80.875,312.6875 L 80.875,312.9375 L 80.40625,312.46875 z M 36.90625,313.34375 L 37.15625,313.34375 L 37.15625,313.59375 L 36.90625,313.34375 z" fill="#0f0f0f" fill-opacity="0.22" stroke="#d7a055" stroke-width="2.8" stroke-linecap="round" stroke-linejoin="round"/>
</svg>
